<svg width="47" height="40" viewBox="0 0 47 40" fill="none" xmlns="http://www.w3.org/2000/svg">
<path d="M2.57717 39.1667H44.4228C45.1063 39.1667 45.7619 38.8951 46.2452 38.4118C46.7285 37.9285 47 37.273 47 36.5895V2.57717C47 1.89366 46.7285 1.23815 46.2452 0.754835C45.7619 0.271522 45.1063 0 44.4228 0H2.57717C1.89366 0 1.23815 0.271522 0.754835 0.754835C0.271522 1.23815 0 1.89366 0 2.57717V36.5895C0 37.273 0.271522 37.9285 0.754835 38.4118C1.23815 38.8951 1.89366 39.1667 2.57717 39.1667ZM1.56667 2.57717C1.56667 2.30917 1.67313 2.05214 1.86264 1.86264C2.05214 1.67313 2.30917 1.56667 2.57717 1.56667H44.4228C44.6908 1.56667 44.9479 1.67313 45.1374 1.86264C45.3269 2.05214 45.4333 2.30917 45.4333 2.57717V6.26667H1.56667V2.57717ZM1.56667 7.83333H45.4333V36.5895C45.4333 36.8575 45.3269 37.1145 45.1374 37.304C44.9479 37.4935 44.6908 37.6 44.4228 37.6H2.57717C2.30917 37.6 2.05214 37.4935 1.86264 37.304C1.67313 37.1145 1.56667 36.8575 1.56667 36.5895V7.83333Z" fill="#E85123"/>
<path d="M18.7995 3.1333H3.13281V4.69997H18.7995V3.1333Z" fill="#E85123"/>
<path d="M42.301 3.1333H40.7344V4.69997H42.301V3.1333Z" fill="#E85123"/>
<path d="M36.8167 3.1333H35.25V4.69997H36.8167V3.1333Z" fill="#E85123"/>
<path d="M12.5334 25.5601H13.5752C13.8272 25.5587 14.0739 25.6323 14.2839 25.7717C14.4939 25.911 14.6576 26.1097 14.7543 26.3425C14.8509 26.5752 14.876 26.8315 14.8265 27.0786C14.7769 27.3256 14.6549 27.5524 14.476 27.7299L13.7397 28.4662C13.5921 28.6108 13.5076 28.8079 13.5047 29.0146C13.5051 29.1182 13.5261 29.2207 13.5665 29.3162C13.6068 29.4117 13.6657 29.4982 13.7397 29.5707L16.6459 32.4769C16.7184 32.5509 16.8049 32.6098 16.9004 32.6501C16.9959 32.6905 17.0984 32.7115 17.202 32.7119C17.4087 32.7089 17.6057 32.6245 17.7504 32.4769L18.4867 31.7484C18.6607 31.5644 18.8872 31.4385 19.1353 31.388C19.3835 31.3376 19.6412 31.3649 19.8732 31.4664C20.1074 31.5599 20.3076 31.7223 20.4475 31.9321C20.5874 32.1419 20.6603 32.3893 20.6565 32.6414V33.6832C20.6565 33.891 20.7391 34.0902 20.886 34.2371C21.0329 34.384 21.2321 34.4666 21.4399 34.4666H25.5524C25.7601 34.4666 25.9594 34.384 26.1063 34.2371C26.2532 34.0902 26.3357 33.891 26.3357 33.6832V32.6414C26.3309 32.389 26.4033 32.1412 26.5433 31.9312C26.6834 31.7212 26.8842 31.559 27.119 31.4664C27.3511 31.3649 27.6087 31.3376 27.8569 31.388C28.1051 31.4385 28.3316 31.5644 28.5055 31.7484L29.2419 32.4769C29.3886 32.6228 29.5872 32.7047 29.7941 32.7047C30.0011 32.7047 30.1996 32.6228 30.3464 32.4769L33.2525 29.5707C33.3266 29.4982 33.3854 29.4117 33.4258 29.3162C33.4661 29.2207 33.4871 29.1182 33.4875 29.0146C33.4846 28.8079 33.4001 28.6108 33.2525 28.4662L32.524 27.7299C32.34 27.5559 32.2142 27.3294 32.1637 27.0812C32.1132 26.8331 32.1406 26.5754 32.242 26.3434C32.3347 26.1086 32.4968 25.9077 32.7069 25.7677C32.9169 25.6277 33.1647 25.5552 33.417 25.5601H34.4667C34.6745 25.5601 34.8737 25.4775 35.0206 25.3306C35.1675 25.1837 35.25 24.9845 35.25 24.7767V20.6642C35.25 20.4565 35.1675 20.2572 35.0206 20.1103C34.8737 19.9634 34.6745 19.8809 34.4667 19.8809H33.4249C33.1729 19.8801 32.9268 19.8048 32.7176 19.6644C32.5084 19.5241 32.3454 19.3249 32.249 19.0921C32.1527 18.8593 32.1275 18.6032 32.1764 18.3561C32.2253 18.1089 32.3463 17.8818 32.524 17.7032L33.2604 16.9669C33.408 16.8223 33.4924 16.6252 33.4954 16.4186C33.4949 16.3149 33.474 16.2124 33.4336 16.1169C33.3933 16.0214 33.3344 15.9349 33.2604 15.8624L30.3542 12.9562C30.2817 12.8822 30.1951 12.8233 30.0997 12.783C30.0042 12.7426 29.9017 12.7216 29.798 12.7212C29.5914 12.7242 29.3943 12.8086 29.2497 12.9562L28.5134 13.6847C28.3394 13.8688 28.1129 13.9946 27.8647 14.0451C27.6166 14.0955 27.3589 14.0682 27.1269 13.9667C26.8921 13.8741 26.6912 13.7119 26.5512 13.5019C26.4112 13.2919 26.3387 13.0441 26.3435 12.7917V11.7499C26.3435 11.5421 26.261 11.3429 26.1141 11.196C25.9672 11.0491 25.768 10.9666 25.5602 10.9666H21.4477C21.24 10.9666 21.0407 11.0491 20.8938 11.196C20.7469 11.3429 20.6644 11.5421 20.6644 11.7499V12.7917C20.6681 13.0438 20.5952 13.2912 20.4553 13.501C20.3155 13.7108 20.1152 13.8732 19.881 13.9667C19.649 14.0682 19.3913 14.0955 19.1432 14.0451C18.895 13.9946 18.6685 13.8688 18.4945 13.6847L17.7582 12.9562C17.6114 12.8103 17.4129 12.7284 17.206 12.7284C16.999 12.7284 16.8005 12.8103 16.6537 12.9562L13.7475 15.8624C13.6735 15.9349 13.6146 16.0214 13.5743 16.1169C13.534 16.2124 13.513 16.3149 13.5125 16.4186C13.5155 16.6252 13.5999 16.8223 13.7475 16.9669L14.476 17.7032C14.6601 17.8772 14.7859 18.1037 14.8364 18.3519C14.8869 18.6 14.8595 18.8577 14.758 19.0897C14.6645 19.3239 14.5021 19.5241 14.2923 19.664C14.0825 19.8039 13.8352 19.8768 13.583 19.8731H12.5334C12.3256 19.8731 12.1264 19.9556 11.9795 20.1025C11.8326 20.2494 11.75 20.4486 11.75 20.6564V24.7689C11.749 24.8724 11.7685 24.9751 11.8074 25.0711C11.8463 25.167 11.9038 25.2543 11.9767 25.3279C12.0495 25.4014 12.1362 25.4598 12.2318 25.4997C12.3273 25.5395 12.4298 25.5601 12.5334 25.5601ZM13.3167 21.4476H13.5752C14.1361 21.4455 14.6838 21.2776 15.1494 20.965C15.6151 20.6524 15.9779 20.2091 16.1922 19.6908C16.4066 19.1725 16.4629 18.6024 16.354 18.0522C16.2452 17.5021 15.9761 16.9963 15.5805 16.5987L15.4004 16.4499L17.202 14.6482L17.3822 14.8284C17.7798 15.2239 18.2855 15.493 18.8357 15.6019C19.3859 15.7107 19.956 15.6544 20.4743 15.4401C20.9926 15.2257 21.4359 14.8629 21.7485 14.3973C22.061 13.9316 22.2289 13.3839 22.231 12.8231V12.5332H24.7769V12.7917C24.7768 13.3526 24.9431 13.901 25.2546 14.3674C25.5662 14.8338 26.0091 15.1973 26.5273 15.4119C27.0455 15.6266 27.6157 15.6828 28.1659 15.5733C28.716 15.4639 29.2213 15.1937 29.6179 14.7971L29.798 14.6169L31.5997 16.4186L31.4195 16.5987C31.024 16.9963 30.7549 17.5021 30.646 18.0522C30.5372 18.6024 30.5935 19.1725 30.8078 19.6908C31.0222 20.2091 31.385 20.6524 31.8507 20.965C32.3163 21.2776 32.864 21.4455 33.4249 21.4476H33.6834V23.9934H33.4249C32.864 23.9933 32.3156 24.1596 31.8492 24.4711C31.3828 24.7827 31.0193 25.2256 30.8047 25.7438C30.59 26.262 30.5338 26.8323 30.6433 27.3824C30.7527 27.9325 31.0229 28.4378 31.4195 28.8344L31.5997 29.0146L29.7667 30.8162L29.5865 30.6361C29.19 30.2394 28.6847 29.9693 28.1345 29.8598C27.5844 29.7504 27.0142 29.8065 26.496 30.0212C25.9778 30.2358 25.5349 30.5993 25.2233 31.0658C24.9117 31.5322 24.7455 32.0805 24.7455 32.6414V32.8999H22.231V32.6414C22.2289 32.0805 22.061 31.5328 21.7485 31.0672C21.4359 30.6015 20.9926 30.2387 20.4743 30.0244C19.956 29.81 19.3859 29.7537 18.8357 29.8626C18.2855 29.9714 17.7798 30.2405 17.3822 30.6361L17.202 30.8162L15.4004 28.9832L15.5805 28.8031C15.9772 28.4065 16.2473 27.9012 16.3568 27.351C16.4662 26.8009 16.4101 26.2307 16.1954 25.7125C15.9808 25.1943 15.6172 24.7514 15.1508 24.4398C14.6844 24.1282 14.1361 23.962 13.5752 23.9621H13.3167V21.4476Z" fill="#E85123"/>
<path d="M23.501 28.9833C24.7405 28.9833 25.9521 28.6158 26.9826 27.9272C28.0132 27.2386 28.8164 26.2599 29.2907 25.1148C29.765 23.9697 29.8891 22.7097 29.6473 21.4941C29.4055 20.2784 28.8087 19.1618 27.9322 18.2854C27.0558 17.409 25.9392 16.8122 24.7236 16.5704C23.508 16.3286 22.248 16.4527 21.1029 16.927C19.9578 17.4013 18.9791 18.2045 18.2905 19.235C17.6019 20.2656 17.2344 21.4772 17.2344 22.7166C17.2344 24.3786 17.8946 25.9726 19.0698 27.1478C20.2451 28.3231 21.839 28.9833 23.501 28.9833ZM23.501 18.0166C24.4306 18.0166 25.3393 18.2923 26.1122 18.8087C26.8851 19.3252 27.4875 20.0592 27.8433 20.918C28.199 21.7768 28.2921 22.7218 28.1107 23.6335C27.9294 24.5453 27.4818 25.3827 26.8244 26.04C26.1671 26.6973 25.3297 27.145 24.418 27.3263C23.5063 27.5077 22.5612 27.4146 21.7024 27.0589C20.8436 26.7031 20.1096 26.1007 19.5931 25.3278C19.0767 24.5549 18.801 23.6462 18.801 22.7166C18.801 21.4701 19.2962 20.2746 20.1776 19.3932C21.0591 18.5118 22.2545 18.0166 23.501 18.0166Z" fill="#E85123"/>
</svg>
