<svg width="47" height="40" viewBox="0 0 47 40" fill="none" xmlns="http://www.w3.org/2000/svg">
<path d="M2.57717 39.1667H44.4228C45.1063 39.1667 45.7619 38.8951 46.2452 38.4118C46.7285 37.9285 47 37.273 47 36.5895V2.57717C47 1.89366 46.7285 1.23815 46.2452 0.754835C45.7619 0.271522 45.1063 0 44.4228 0H2.57717C1.89366 0 1.23815 0.271522 0.754835 0.754835C0.271522 1.23815 0 1.89366 0 2.57717V36.5895C0 37.273 0.271522 37.9285 0.754835 38.4118C1.23815 38.8951 1.89366 39.1667 2.57717 39.1667ZM1.56667 2.57717C1.56667 2.30917 1.67313 2.05214 1.86264 1.86264C2.05214 1.67313 2.30917 1.56667 2.57717 1.56667H44.4228C44.6908 1.56667 44.9479 1.67313 45.1374 1.86264C45.3269 2.05214 45.4333 2.30917 45.4333 2.57717V6.26667H1.56667V2.57717ZM1.56667 7.83333H45.4333V36.5895C45.4333 36.8575 45.3269 37.1145 45.1374 37.304C44.9479 37.4935 44.6908 37.6 44.4228 37.6H2.57717C2.30917 37.6 2.05214 37.4935 1.86264 37.304C1.67313 37.1145 1.56667 36.8575 1.56667 36.5895V7.83333Z" fill="white"/>
<path d="M18.7992 3.1333H3.13257V4.69997H18.7992V3.1333Z" fill="white"/>
<path d="M42.2996 3.1333H40.733V4.69997H42.2996V3.1333Z" fill="white"/>
<path d="M36.8167 3.1333H35.25V4.69997H36.8167V3.1333Z" fill="white"/>
<path d="M12.5334 25.5601H13.5752C13.8272 25.5587 14.0739 25.6324 14.2839 25.7717C14.4939 25.9111 14.6576 26.1098 14.7543 26.3425C14.8509 26.5753 14.876 26.8315 14.8265 27.0786C14.7769 27.3257 14.6549 27.5525 14.476 27.7299L13.7397 28.4663C13.5921 28.6109 13.5076 28.808 13.5047 29.0146C13.5051 29.1183 13.5261 29.2208 13.5665 29.3162C13.6068 29.4117 13.6657 29.4982 13.7397 29.5708L16.6459 32.4769C16.7184 32.551 16.8049 32.6098 16.9004 32.6502C16.9959 32.6905 17.0984 32.7115 17.202 32.7119C17.4087 32.709 17.6057 32.6245 17.7504 32.4769L18.4867 31.7484C18.6607 31.5644 18.8872 31.4386 19.1353 31.3881C19.3835 31.3376 19.6412 31.365 19.8732 31.4664C20.1074 31.56 20.3076 31.7224 20.4475 31.9322C20.5874 32.142 20.6603 32.3893 20.6565 32.6414V33.6833C20.6565 33.891 20.7391 34.0903 20.886 34.2372C21.0329 34.3841 21.2321 34.4666 21.4399 34.4666H25.5524C25.7601 34.4666 25.9594 34.3841 26.1063 34.2372C26.2532 34.0903 26.3357 33.891 26.3357 33.6833V32.6414C26.3309 32.3891 26.4033 32.1413 26.5433 31.9313C26.6834 31.7212 26.8842 31.5591 27.119 31.4664C27.3511 31.365 27.6087 31.3376 27.8569 31.3881C28.1051 31.4386 28.3316 31.5644 28.5055 31.7484L29.2419 32.4769C29.3886 32.6228 29.5872 32.7047 29.7941 32.7047C30.0011 32.7047 30.1996 32.6228 30.3464 32.4769L33.2525 29.5708C33.3266 29.4982 33.3854 29.4117 33.4258 29.3162C33.4661 29.2208 33.4871 29.1183 33.4875 29.0146C33.4846 28.808 33.4001 28.6109 33.2525 28.4663L32.524 27.7299C32.34 27.556 32.2142 27.3295 32.1637 27.0813C32.1132 26.8332 32.1406 26.5755 32.242 26.3434C32.3346 26.1086 32.4968 25.9078 32.7069 25.7678C32.9169 25.6277 33.1647 25.5553 33.417 25.5601H34.4667C34.6745 25.5601 34.8737 25.4776 35.0206 25.3307C35.1675 25.1838 35.25 24.9845 35.25 24.7768V20.6643C35.25 20.4565 35.1675 20.2573 35.0206 20.1104C34.8737 19.9635 34.6745 19.8809 34.4667 19.8809H33.4249C33.1729 19.8802 32.9268 19.8048 32.7176 19.6645C32.5084 19.5241 32.3454 19.325 32.249 19.0922C32.1527 18.8594 32.1275 18.6033 32.1764 18.3561C32.2253 18.109 32.3463 17.8818 32.524 17.7033L33.2604 16.9669C33.408 16.8223 33.4924 16.6252 33.4954 16.4186C33.4949 16.315 33.474 16.2124 33.4336 16.117C33.3933 16.0215 33.3344 15.935 33.2604 15.8624L30.3542 12.9563C30.2817 12.8823 30.1951 12.8234 30.0997 12.783C30.0042 12.7427 29.9017 12.7217 29.798 12.7213C29.5914 12.7242 29.3943 12.8087 29.2497 12.9563L28.5134 13.6848C28.3394 13.8688 28.1129 13.9947 27.8647 14.0451C27.6166 14.0956 27.3589 14.0682 27.1269 13.9668C26.8921 13.8742 26.6912 13.712 26.5512 13.502C26.4112 13.2919 26.3387 13.0441 26.3435 12.7918V11.7499C26.3435 11.5422 26.261 11.3429 26.1141 11.196C25.9672 11.0491 25.768 10.9666 25.5602 10.9666H21.4477C21.24 10.9666 21.0407 11.0491 20.8938 11.196C20.7469 11.3429 20.6644 11.5422 20.6644 11.7499V12.7918C20.6681 13.0439 20.5952 13.2912 20.4553 13.501C20.3155 13.7108 20.1152 13.8732 19.881 13.9668C19.649 14.0682 19.3913 14.0956 19.1432 14.0451C18.895 13.9947 18.6685 13.8688 18.4945 13.6848L17.7582 12.9563C17.6114 12.8104 17.4129 12.7285 17.206 12.7285C16.999 12.7285 16.8005 12.8104 16.6537 12.9563L13.7475 15.8624C13.6735 15.935 13.6146 16.0215 13.5743 16.117C13.534 16.2124 13.513 16.315 13.5125 16.4186C13.5155 16.6252 13.5999 16.8223 13.7475 16.9669L14.476 17.7033C14.6601 17.8772 14.7859 18.1038 14.8364 18.3519C14.8869 18.6001 14.8595 18.8578 14.758 19.0898C14.6645 19.3239 14.5021 19.5242 14.2923 19.6641C14.0825 19.8039 13.8352 19.8768 13.583 19.8731H12.5334C12.3256 19.8731 12.1264 19.9556 11.9795 20.1025C11.8326 20.2494 11.75 20.4487 11.75 20.6564V24.7689C11.749 24.8725 11.7685 24.9752 11.8074 25.0711C11.8463 25.1671 11.9038 25.2543 11.9767 25.3279C12.0495 25.4015 12.1362 25.4599 12.2318 25.4997C12.3273 25.5396 12.4298 25.5601 12.5334 25.5601ZM13.3167 21.4476H13.5752C14.1361 21.4455 14.6838 21.2776 15.1494 20.965C15.6151 20.6524 15.9779 20.2091 16.1922 19.6909C16.4066 19.1726 16.4629 18.6025 16.354 18.0523C16.2452 17.5021 15.9761 16.9964 15.5805 16.5988L15.4004 16.4499L17.202 14.6483L17.3822 14.8284C17.7798 15.224 18.2855 15.4931 18.8357 15.6019C19.3859 15.7108 19.956 15.6545 20.4743 15.4401C20.9926 15.2258 21.4359 14.863 21.7485 14.3973C22.061 13.9317 22.2289 13.384 22.231 12.8231V12.5333H24.7769V12.7918C24.7768 13.3527 24.9431 13.901 25.2546 14.3674C25.5662 14.8338 26.0091 15.1973 26.5273 15.412C27.0455 15.6267 27.6157 15.6828 28.1659 15.5734C28.716 15.4639 29.2213 15.1938 29.6179 14.7971L29.798 14.6169L31.5997 16.4186L31.4195 16.5988C31.024 16.9964 30.7549 17.5021 30.646 18.0523C30.5372 18.6025 30.5935 19.1726 30.8078 19.6909C31.0222 20.2091 31.385 20.6524 31.8507 20.965C32.3163 21.2776 32.864 21.4455 33.4249 21.4476H33.6834V23.9934H33.4249C32.864 23.9934 32.3156 24.1596 31.8492 24.4712C31.3828 24.7828 31.0193 25.2257 30.8047 25.7439C30.59 26.2621 30.5338 26.8323 30.6433 27.3824C30.7527 27.9326 31.0229 28.4379 31.4195 28.8344L31.5997 29.0146L29.7667 30.8163L29.5865 30.6361C29.19 30.2395 28.6847 29.9693 28.1345 29.8599C27.5844 29.7504 27.0142 29.8066 26.496 30.0212C25.9778 30.2359 25.5349 30.5994 25.2233 31.0658C24.9117 31.5322 24.7455 32.0805 24.7455 32.6414V32.8999H22.231V32.6414C22.2289 32.0806 22.061 31.5329 21.7485 31.0672C21.4359 30.6016 20.9926 30.2388 20.4743 30.0244C19.956 29.8101 19.3859 29.7538 18.8357 29.8626C18.2855 29.9715 17.7798 30.2406 17.3822 30.6361L17.202 30.8163L15.4004 28.9833L15.5805 28.8031C15.9772 28.4065 16.2473 27.9012 16.3568 27.3511C16.4662 26.801 16.4101 26.2308 16.1954 25.7126C15.9808 25.1944 15.6172 24.7515 15.1508 24.4399C14.6844 24.1283 14.1361 23.962 13.5752 23.9621H13.3167V21.4476Z" fill="white"/>
<path d="M23.4996 28.9834C24.7391 28.9834 25.9507 28.6159 26.9812 27.9273C28.0118 27.2387 28.815 26.26 29.2893 25.1149C29.7636 23.9698 29.8877 22.7098 29.6459 21.4942C29.4041 20.2786 28.8072 19.1619 27.9308 18.2855C27.0544 17.4091 25.9378 16.8123 24.7222 16.5705C23.5066 16.3287 22.2466 16.4528 21.1015 16.9271C19.9564 17.4014 18.9777 18.2046 18.2891 19.2352C17.6005 20.2657 17.233 21.4773 17.233 22.7167C17.233 24.3788 17.8932 25.9727 19.0684 27.1479C20.2437 28.3232 21.8376 28.9834 23.4996 28.9834ZM23.4996 18.0167C24.4292 18.0167 25.3379 18.2924 26.1108 18.8088C26.8837 19.3253 27.4861 20.0593 27.8419 20.9181C28.1976 21.7769 28.2907 22.722 28.1093 23.6337C27.928 24.5454 27.4803 25.3828 26.823 26.0401C26.1657 26.6975 25.3283 27.1451 24.4166 27.3264C23.5049 27.5078 22.5598 27.4147 21.701 27.059C20.8422 26.7032 20.1082 26.1008 19.5917 25.3279C19.0753 24.555 18.7996 23.6463 18.7996 22.7167C18.7996 21.4702 19.2948 20.2748 20.1762 19.3933C21.0577 18.5119 22.2531 18.0167 23.4996 18.0167Z" fill="white"/>
</svg>
