<svg width="44" height="39" viewBox="0 0 44 39" fill="none" xmlns="http://www.w3.org/2000/svg">
<path d="M40.6107 30.5034C40.1607 30.5034 39.7959 30.8683 39.7959 31.3183V34.3005C39.7959 35.6506 38.7015 36.745 37.3514 36.745H4.07411C2.72407 36.745 1.62964 35.6506 1.62964 34.3005V8.22621C1.62964 6.87617 2.72407 5.78174 4.07411 5.78174H12.0757C12.5257 5.78174 12.8905 5.41694 12.8905 4.96692C12.8905 4.51691 12.5257 4.1521 12.0757 4.1521H4.07411C1.82404 4.1521 0 5.97614 0 8.22621V34.3005C0 36.5506 1.82404 38.3746 4.07411 38.3746H37.3514C39.5978 38.3657 41.4166 36.5469 41.4256 34.3005V31.3183C41.4256 30.8683 41.0607 30.5034 40.6107 30.5034Z" fill="#E85123"/>
<path d="M41.5546 16.8797H41.4242V8.22628C41.4153 5.97992 39.5964 4.1611 37.3501 4.15217C36.9001 4.15217 36.5353 4.51698 36.5353 4.96699C36.5353 5.41701 36.9001 5.78181 37.3501 5.78181C38.7001 5.78181 39.7945 6.87624 39.7945 8.22628V8.68258H38.8819L33.993 3.79365L30.4404 0.241023C30.2874 0.086767 30.0791 0 29.8619 0C29.6446 0 29.4363 0.086767 29.2833 0.241023L24.9811 4.54328L20.6625 0.241023C20.3402 -0.0715154 19.8278 -0.0715154 19.5055 0.241023L11.0639 8.68258H8.14685C7.69684 8.68258 7.33203 9.04739 7.33203 9.4974C7.33203 9.94742 7.69684 10.3122 8.14685 10.3122H39.7945V16.8308H35.036C31.8859 16.8308 29.3322 19.3845 29.3322 22.5346V23.1538C29.3322 26.3039 31.8859 28.8576 35.036 28.8576H41.5546C42.9046 28.8576 43.999 27.7632 43.999 26.4131V19.3242C43.999 17.9741 42.9046 16.8797 41.5546 16.8797ZM29.87 1.96845L32.233 4.33143C30.804 5.29156 28.9361 5.29156 27.507 4.33143L29.87 1.96845ZM26.35 5.48848C28.4285 7.07501 31.3115 7.07501 33.39 5.48848L36.6493 8.74777H29.1041L26.1218 5.70033L26.35 5.48848ZM16.898 8.74777L21.787 3.85883L22.9277 4.99958L19.1795 8.68258L16.898 8.74777ZM24.15 6.09145L26.8878 8.68258H21.4773L24.15 6.09145ZM20.0921 1.96845L20.6951 2.57141L14.5839 8.68258H13.378L20.0921 1.96845ZM42.3694 26.4131C42.3694 26.8631 42.0046 27.2279 41.5546 27.2279H35.036C33.9555 27.2279 32.9192 26.7987 32.1552 26.0347C31.3911 25.2706 30.9619 24.2343 30.9619 23.1538V22.5346C30.9619 20.2845 32.7859 18.4604 35.036 18.4604H41.5546C42.0046 18.4604 42.3694 18.8253 42.3694 19.2753V26.4131Z" fill="#E85123"/>
<path d="M35.1648 24.5227C36.0648 24.5227 36.7944 23.7931 36.7944 22.8931C36.7944 21.993 36.0648 21.2634 35.1648 21.2634C34.2648 21.2634 33.5352 21.993 33.5352 22.8931C33.5352 23.7931 34.2648 24.5227 35.1648 24.5227Z" fill="#E85123"/>
</svg>
