<svg width="44" height="38" viewBox="0 0 44 38" fill="none" xmlns="http://www.w3.org/2000/svg">
<path d="M40.6107 30.2117C40.1607 30.2117 39.7959 30.5626 39.7959 30.9954V33.8639C39.7959 35.1624 38.7015 36.2151 37.3514 36.2151H4.07411C2.72407 36.2151 1.62964 35.1624 1.62964 33.8639V8.78439C1.62964 7.48586 2.72407 6.43319 4.07411 6.43319H12.0757C12.5257 6.43319 12.8905 6.0823 12.8905 5.64946C12.8905 5.21661 12.5257 4.86572 12.0757 4.86572H4.07411C1.82404 4.86572 0 6.62017 0 8.78439V33.8639C0 36.0281 1.82404 37.7825 4.07411 37.7825H37.3514C39.5978 37.7739 41.4166 36.0245 41.4256 33.8639V30.9954C41.4256 30.5626 41.0607 30.2117 40.6107 30.2117Z" fill="white"/>
<path d="M41.555 17.1076H41.4247V8.78436C41.4157 6.62371 39.5969 4.87429 37.3506 4.8657C36.9006 4.8657 36.5357 5.21659 36.5357 5.64943C36.5357 6.08227 36.9006 6.43316 37.3506 6.43316C38.7006 6.43316 39.795 7.48583 39.795 8.78436V9.22325H38.8824L33.9935 4.52085L30.4409 1.10378C30.2879 0.955405 30.0796 0.871948 29.8624 0.871948C29.6451 0.871948 29.4368 0.955405 29.2838 1.10378L24.9816 5.24189L20.663 1.10378C20.3406 0.803161 19.8283 0.803161 19.506 1.10378L11.0644 9.22325H8.14734C7.69733 9.22325 7.33252 9.57414 7.33252 10.007C7.33252 10.4398 7.69733 10.7907 8.14734 10.7907H39.795V17.0606H35.0365C31.8864 17.0606 29.3327 19.5168 29.3327 22.5467V23.1424C29.3327 26.1723 31.8864 28.6285 35.0365 28.6285H41.555C42.9051 28.6285 43.9995 27.5758 43.9995 26.2773V19.4588C43.9995 18.1603 42.9051 17.1076 41.555 17.1076ZM29.8705 2.76529L32.2335 5.03812C30.8045 5.96162 28.9365 5.96162 27.5075 5.03812L29.8705 2.76529ZM26.3505 6.15102C28.429 7.67702 31.312 7.67702 33.3905 6.15102L36.6498 9.28595H29.1046L26.1223 6.35479L26.3505 6.15102ZM16.8985 9.28595L21.7875 4.58355L22.9282 5.68078L19.18 9.22325L16.8985 9.28595ZM24.1504 6.73098L26.8883 9.22325H21.4778L24.1504 6.73098ZM20.0926 2.76529L20.6956 3.34525L14.5844 9.22325H13.3785L20.0926 2.76529ZM42.3699 26.2773C42.3699 26.7101 42.0051 27.061 41.555 27.061H35.0365C33.956 27.061 32.9197 26.6482 32.1556 25.9133C31.3916 25.1784 30.9624 24.1817 30.9624 23.1424V22.5467C30.9624 20.3825 32.7864 18.6281 35.0365 18.6281H41.555C42.0051 18.6281 42.3699 18.9789 42.3699 19.4118V26.2773Z" fill="white"/>
<path d="M35.1663 24.459C36.0663 24.459 36.7959 23.7573 36.7959 22.8916C36.7959 22.0259 36.0663 21.3241 35.1663 21.3241C34.2662 21.3241 33.5366 22.0259 33.5366 22.8916C33.5366 23.7573 34.2662 24.459 35.1663 24.459Z" fill="white"/>
</svg>
