<svg width="48" height="47" viewBox="0 0 48 47" fill="none" xmlns="http://www.w3.org/2000/svg">
<g filter="url(#filter0_d_1_1166)">
<path d="M43.7586 16.5518L37.1517 10.9524V2.34796C37.1517 2.16641 37.079 1.9923 36.9497 1.86393C36.8204 1.73556 36.6449 1.66344 36.462 1.66344H31.731C31.5481 1.66344 31.3727 1.73556 31.2434 1.86393C31.114 1.9923 31.0414 2.16641 31.0414 2.34796V5.77057L24.4483 0.16433C24.3234 0.0582777 24.1644 0 24 0C23.8356 0 23.6766 0.0582777 23.5517 0.16433L4.24143 16.5518C4.13428 16.6428 4.05779 16.7641 4.02226 16.8995C3.98673 17.035 3.99387 17.1779 4.04271 17.3092C4.09155 17.4405 4.17976 17.5537 4.29544 17.6337C4.41112 17.7137 4.54872 17.7566 4.68971 17.7566H9.51728V33.8566C9.51728 35.0439 9.99247 36.1826 10.8383 37.0221C11.6842 37.8617 12.8314 38.3333 14.0276 38.3333H20.3586C20.5415 38.3333 20.717 38.2612 20.8463 38.1328C20.9756 38.0045 21.0483 37.8304 21.0483 37.6488C21.0483 37.4673 20.9756 37.2932 20.8463 37.1648C20.717 37.0364 20.5415 36.9643 20.3586 36.9643H14.0276C13.1972 36.9643 12.4008 36.6369 11.8136 36.0541C11.2265 35.4712 10.8966 34.6808 10.8966 33.8566V17.7566H37.1034V33.8566C37.1034 34.6808 36.7735 35.4712 36.1864 36.0541C35.5992 36.6369 34.8028 36.9643 33.9724 36.9643H27.8207C26.9903 36.9643 26.1939 36.6369 25.6067 36.0541C25.0195 35.4712 24.6897 34.6808 24.6897 33.8566V31.7551C25.7045 31.5926 26.628 31.0772 27.2951 30.3009C27.9622 29.5246 28.3294 28.5382 28.331 27.5179V24.5128C28.331 24.3313 28.2584 24.1572 28.129 24.0288C27.9997 23.9004 27.8243 23.8283 27.6414 23.8283H26.5862V22.0622C26.5862 21.8807 26.5135 21.7066 26.3842 21.5782C26.2549 21.4498 26.0795 21.3777 25.8965 21.3777C25.7136 21.3777 25.5382 21.4498 25.4089 21.5782C25.2796 21.7066 25.2069 21.8807 25.2069 22.0622V23.8283H22.7931V22.0622C22.7931 21.8807 22.7204 21.7066 22.5911 21.5782C22.4618 21.4498 22.2864 21.3777 22.1035 21.3777C21.9205 21.3777 21.7451 21.4498 21.6158 21.5782C21.4865 21.7066 21.4138 21.8807 21.4138 22.0622V23.8283H20.3586C20.1757 23.8283 20.0003 23.9004 19.871 24.0288C19.7416 24.1572 19.669 24.3313 19.669 24.5128V27.5179C19.6706 28.5382 20.0378 29.5246 20.7049 30.3009C21.372 31.0772 22.2955 31.5926 23.3103 31.7551V33.8566C23.3103 35.0439 23.7855 36.1826 24.6314 37.0221C25.4772 37.8617 26.6245 38.3333 27.8207 38.3333H33.9724C35.1686 38.3333 36.3158 37.8617 37.1617 37.0221C38.0075 36.1826 38.4827 35.0439 38.4827 33.8566V17.7566H43.3103C43.4513 17.7566 43.5889 17.7137 43.7046 17.6337C43.8202 17.5537 43.9084 17.4405 43.9573 17.3092C44.0061 17.1779 44.0133 17.035 43.9777 16.8995C43.9422 16.7641 43.8657 16.6428 43.7586 16.5518ZM21.0483 27.5042V25.1973H26.9517V27.5179C26.9517 28.2949 26.6407 29.0401 26.0872 29.5895C25.5336 30.139 24.7828 30.4476 24 30.4476C23.2172 30.4476 22.4664 30.139 21.9128 29.5895C21.3593 29.0401 21.0483 28.2949 21.0483 27.5179V27.5042ZM32.4207 3.03248H35.7724V9.77503L32.4207 6.92742V3.03248ZM37.7931 16.3875H6.55867L24 1.58814L41.4413 16.3875H37.7931Z" fill="white"/>
</g>
<defs>
<filter id="filter0_d_1_1166" x="0" y="0" width="48" height="46.332" filterUnits="userSpaceOnUse" color-interpolation-filters="sRGB">
<feFlood flood-opacity="0" result="BackgroundImageFix"/>
<feColorMatrix in="SourceAlpha" type="matrix" values="0 0 0 0 0 0 0 0 0 0 0 0 0 0 0 0 0 0 127 0" result="hardAlpha"/>
<feOffset dy="4"/>
<feGaussianBlur stdDeviation="2"/>
<feComposite in2="hardAlpha" operator="out"/>
<feColorMatrix type="matrix" values="0 0 0 0 0 0 0 0 0 0 0 0 0 0 0 0 0 0 0.25 0"/>
<feBlend mode="normal" in2="BackgroundImageFix" result="effect1_dropShadow_1_1166"/>
<feBlend mode="normal" in="SourceGraphic" in2="effect1_dropShadow_1_1166" result="shape"/>
</filter>
</defs>
</svg>
