<svg width="29" height="29" viewBox="0 0 29 29" fill="none" xmlns="http://www.w3.org/2000/svg">
<path d="M23.8218 16.053V23.8209C23.8218 24.1014 23.7193 24.3441 23.5144 24.5491C23.3094 24.7541 23.0666 24.8566 22.7861 24.8566H16.5718V18.6423H12.429V24.8566H6.21469C5.93418 24.8566 5.69144 24.7541 5.48645 24.5491C5.28147 24.3441 5.17897 24.1014 5.17897 23.8209V16.053C5.17897 16.0422 5.18167 16.026 5.18707 16.0045C5.19246 15.9829 5.19516 15.9667 5.19516 15.9559L14.5004 8.28516L23.8056 15.9559C23.8164 15.9775 23.8218 16.0099 23.8218 16.053ZM27.4306 14.9364L26.4273 16.1339C26.341 16.231 26.2277 16.2904 26.0875 16.3119H26.0389C25.8987 16.3119 25.7854 16.2742 25.6991 16.1987L14.5004 6.86105L3.30174 16.1987C3.17228 16.285 3.04281 16.3227 2.91335 16.3119C2.7731 16.2904 2.65982 16.231 2.57351 16.1339L1.57016 14.9364C1.48385 14.8285 1.44609 14.7017 1.45688 14.5561C1.46766 14.4104 1.527 14.2945 1.63489 14.2081L13.2705 4.51451C13.6157 4.234 14.0257 4.09375 14.5004 4.09375C14.9751 4.09375 15.3851 4.234 15.7303 4.51451L19.679 7.81585V4.66016C19.679 4.50911 19.7275 4.38504 19.8246 4.28795C19.9217 4.19085 20.0458 4.1423 20.1968 4.1423H23.304C23.455 4.1423 23.5791 4.19085 23.6762 4.28795C23.7733 4.38504 23.8218 4.50911 23.8218 4.66016V11.2628L27.3659 14.2081C27.4738 14.2945 27.5331 14.4104 27.5439 14.5561C27.5547 14.7017 27.517 14.8285 27.4306 14.9364Z" fill="#030303" fill-opacity="0.9"/>
</svg>
