<svg width="27" height="27" viewBox="0 0 27 27" fill="none" xmlns="http://www.w3.org/2000/svg">
<g clip-path="url(#clip0_3173_1605)">
<path d="M9.39114 13.4956L5.27645 13.4896L5.28119 10.1979C5.2838 8.38226 6.76205 6.90825 8.57768 6.91087L8.98912 6.91146C9.15134 6.91208 9.31208 6.88065 9.46211 6.81897C9.61215 6.75729 9.74851 6.66657 9.86338 6.55203C9.97825 6.43749 10.0694 6.30138 10.1315 6.15153C10.1936 6.00167 10.2255 5.84102 10.2253 5.6788L10.2289 3.20999C10.2295 3.04777 10.1981 2.88703 10.1364 2.737C10.0747 2.58696 9.98399 2.4506 9.86945 2.33573C9.75491 2.22086 9.61881 2.12975 9.46895 2.06763C9.3191 2.00552 9.15845 1.97362 8.99623 1.97378L8.58479 1.97319C4.03806 1.96664 0.350105 5.64399 0.34356 10.1907L0.325789 22.5348C0.323827 23.8978 1.42805 25.0052 2.79105 25.0072L9.37455 25.0167C10.7375 25.0186 11.845 23.9144 11.8469 22.5514L11.8564 15.9679C11.8584 14.6049 10.7541 13.4975 9.39114 13.4956ZM24.204 13.5169L20.0893 13.511L20.0941 10.2192C20.0967 8.40358 21.5749 6.92958 23.3906 6.93219L23.802 6.93278C23.9642 6.93341 24.125 6.90197 24.275 6.84029C24.425 6.77861 24.5614 6.68789 24.6763 6.57335C24.7911 6.45881 24.8822 6.32271 24.9444 6.17285C25.0065 6.023 25.0384 5.86235 25.0382 5.70013L25.0418 3.23131C25.0424 3.0691 25.011 2.90836 24.9493 2.75832C24.8876 2.60829 24.7969 2.47192 24.6823 2.35705C24.5678 2.24218 24.4317 2.15107 24.2818 2.08896C24.132 2.02684 23.9713 1.99495 23.8091 1.9951L23.3977 1.99451C18.8509 1.98797 15.163 5.66532 15.1564 10.212L15.1387 22.5562C15.1367 23.9192 16.2409 25.0266 17.6039 25.0285L24.1874 25.038C25.5504 25.04 26.6578 23.9357 26.6598 22.5728L26.6693 15.9892C26.6712 14.6263 25.567 13.5188 24.204 13.5169Z" fill="#E85123"/>
</g>
<defs>
<clipPath id="clip0_3173_1605">
<rect width="26.9661" height="26.9661" fill="white" transform="translate(26.9688 27.0039) rotate(-179.918)"/>
</clipPath>
</defs>
</svg>
