<svg width="38" height="38" viewBox="0 0 38 38" fill="none" xmlns="http://www.w3.org/2000/svg">
<g filter="url(#filter0_d_1_287)">
<path d="M34 23.6871C34 22.3539 32.9153 21.2692 31.5822 21.2692C30.249 21.2692 29.1643 22.3539 29.1643 23.6871C29.1643 24.8925 30.0521 25.8918 31.2075 26.0728V29.2204H28.2106V2.69661C28.2106 2.48954 28.043 2.32199 27.836 2.32199H24.3521V0.37462C24.3521 0.167555 24.1845 0 23.9774 0C23.7704 0 23.6028 0.167555 23.6028 0.37462V2.32199H20.1186C19.9115 2.32199 19.7439 2.48954 19.7439 2.69661V29.2204H18.2257V2.69661C18.2257 2.48954 18.0581 2.32199 17.8511 2.32199H14.3668V0.37462C14.3668 0.167555 14.1993 0 13.9922 0C13.7851 0 13.6176 0.167555 13.6176 0.37462V2.32199H10.1337C9.92661 2.32199 9.75906 2.48954 9.75906 2.69661V29.2204H6.79246V26.0732C7.94787 25.8922 8.83568 24.8928 8.83568 23.6874C8.83568 22.3543 7.75096 21.2696 6.41784 21.2696C5.08472 21.2696 4 22.3543 4 23.6874C4 24.8928 4.8878 25.8922 6.04322 26.0732V29.2204H4.37462C4.16755 29.2204 4 29.3879 4 29.595C4 29.8021 4.16755 29.9696 4.37462 29.9696H33.595C33.8021 29.9696 33.9696 29.8021 33.9696 29.595C33.9696 29.3879 33.8021 29.2204 33.595 29.2204H31.9568V26.0728C33.1122 25.8918 34 24.8925 34 23.6871ZM4.74924 23.6874C4.74924 22.7673 5.49775 22.0188 6.41784 22.0188C7.33793 22.0188 8.08644 22.7673 8.08644 23.6874C8.08644 24.6071 7.33859 25.3552 6.41905 25.3559C6.41862 25.3559 6.41827 25.3557 6.41784 25.3557C6.4174 25.3557 6.41706 25.3559 6.41663 25.3559C5.49709 25.3552 4.74924 24.6071 4.74924 23.6874ZM27.4613 17.6426H20.4932V13.5024H27.4613V17.6426ZM27.4613 12.7532H20.4932V8.40774H27.4613V12.7532ZM20.4932 18.3919H27.4613V22.7373H20.4932V18.3919ZM27.4613 3.07123V7.6585H20.4932V3.07123H27.4613ZM20.4932 23.4866H27.4613V29.2204H26.0163V25.7274C26.0163 25.5203 25.8487 25.3527 25.6416 25.3527H22.3129C22.1058 25.3527 21.9382 25.5203 21.9382 25.7274V29.2204H20.4932V23.4866ZM25.267 29.2204H22.6875V26.102H25.267V29.2204ZM17.4765 17.6426H10.5083V13.5024H17.4765V17.6426ZM17.4765 12.7532H10.5083V8.40774H17.4765V12.7532ZM10.5083 18.3919H17.4765V22.7373H10.5083V18.3919ZM17.4765 3.07123V7.6585H10.5083V3.07123H17.4765ZM10.5083 23.4866H17.4765V29.2204H16.0314V25.7274C16.0314 25.5203 15.8638 25.3527 15.6568 25.3527H12.328C12.1209 25.3527 11.9534 25.5203 11.9534 25.7274V29.2204H10.5083V23.4866ZM15.2821 29.2204H12.7026V26.102H15.2821V29.2204ZM29.9136 23.6871C29.9136 22.767 30.6621 22.0185 31.5822 22.0185C32.5022 22.0185 33.2508 22.767 33.2508 23.6871C33.2508 24.6071 32.5022 25.3557 31.5822 25.3557C30.6621 25.3557 29.9136 24.6071 29.9136 23.6871Z" fill="#E85123"/>
<path d="M12.068 11.4288C12.275 11.4288 12.4426 11.2613 12.4426 11.0542V10.107C12.4426 9.89998 12.275 9.73242 12.068 9.73242C11.8609 9.73242 11.6934 9.89998 11.6934 10.107V11.0542C11.6934 11.2613 11.8609 11.4288 12.068 11.4288Z" fill="#E85123"/>
<path d="M13.9918 11.4288C14.1989 11.4288 14.3664 11.2613 14.3664 11.0542V10.107C14.3664 9.89998 14.1989 9.73242 13.9918 9.73242C13.7847 9.73242 13.6172 9.89998 13.6172 10.107V11.0542C13.6172 11.2613 13.7847 11.4288 13.9918 11.4288Z" fill="#E85123"/>
<path d="M15.9156 11.4288C16.1227 11.4288 16.2903 11.2613 16.2903 11.0542V10.107C16.2903 9.89998 16.1227 9.73242 15.9156 9.73242C15.7086 9.73242 15.541 9.89998 15.541 10.107V11.0542C15.541 11.2613 15.7086 11.4288 15.9156 11.4288Z" fill="#E85123"/>
<path d="M12.068 6.33507C12.275 6.33507 12.4426 6.16752 12.4426 5.96045V5.01329C12.4426 4.80623 12.275 4.63867 12.068 4.63867C11.8609 4.63867 11.6934 4.80623 11.6934 5.01329V5.96045C11.6934 6.16752 11.8609 6.33507 12.068 6.33507Z" fill="#E85123"/>
<path d="M13.9918 6.33507C14.1989 6.33507 14.3664 6.16752 14.3664 5.96045V5.01329C14.3664 4.80623 14.1989 4.63867 13.9918 4.63867C13.7847 4.63867 13.6172 4.80623 13.6172 5.01329V5.96045C13.6172 6.16752 13.7847 6.33507 13.9918 6.33507Z" fill="#E85123"/>
<path d="M15.9156 6.33507C16.1227 6.33507 16.2903 6.16752 16.2903 5.96045V5.01329C16.2903 4.80623 16.1227 4.63867 15.9156 4.63867C15.7086 4.63867 15.541 4.80623 15.541 5.01329V5.96045C15.541 6.16752 15.7086 6.33507 15.9156 6.33507Z" fill="#E85123"/>
<path d="M12.068 16.4894C12.275 16.4894 12.4426 16.3218 12.4426 16.1147V15.1676C12.4426 14.9605 12.275 14.793 12.068 14.793C11.8609 14.793 11.6934 14.9605 11.6934 15.1676V16.1147C11.6934 16.3218 11.8609 16.4894 12.068 16.4894Z" fill="#E85123"/>
<path d="M13.9918 16.4894C14.1989 16.4894 14.3664 16.3218 14.3664 16.1147V15.1676C14.3664 14.9605 14.1989 14.793 13.9918 14.793C13.7847 14.793 13.6172 14.9605 13.6172 15.1676V16.1147C13.6172 16.3218 13.7847 16.4894 13.9918 16.4894Z" fill="#E85123"/>
<path d="M15.9156 16.4894C16.1227 16.4894 16.2903 16.3218 16.2903 16.1147V15.1676C16.2903 14.9605 16.1227 14.793 15.9156 14.793C15.7086 14.793 15.541 14.9605 15.541 15.1676V16.1147C15.541 16.3218 15.7086 16.4894 15.9156 16.4894Z" fill="#E85123"/>
<path d="M12.068 19.7168C11.8609 19.7168 11.6934 19.8844 11.6934 20.0914V21.0386C11.6934 21.2456 11.8609 21.4132 12.068 21.4132C12.275 21.4132 12.4426 21.2456 12.4426 21.0386V20.0914C12.4426 19.8844 12.275 19.7168 12.068 19.7168Z" fill="#E85123"/>
<path d="M13.9918 19.7168C13.7847 19.7168 13.6172 19.8844 13.6172 20.0914V21.0386C13.6172 21.2456 13.7847 21.4132 13.9918 21.4132C14.1989 21.4132 14.3664 21.2456 14.3664 21.0386V20.0914C14.3664 19.8844 14.1989 19.7168 13.9918 19.7168Z" fill="#E85123"/>
<path d="M15.9156 19.7168C15.7086 19.7168 15.541 19.8844 15.541 20.0914V21.0386C15.541 21.2456 15.7086 21.4132 15.9156 21.4132C16.1227 21.4132 16.2903 21.2456 16.2903 21.0386V20.0914C16.2903 19.8844 16.1227 19.7168 15.9156 19.7168Z" fill="#E85123"/>
<path d="M22.0543 11.4288C22.2614 11.4288 22.4289 11.2613 22.4289 11.0542V10.107C22.4289 9.89998 22.2614 9.73242 22.0543 9.73242C21.8472 9.73242 21.6797 9.89998 21.6797 10.107V11.0542C21.6797 11.2613 21.8472 11.4288 22.0543 11.4288Z" fill="#E85123"/>
<path d="M23.9781 11.4288C24.1852 11.4288 24.3528 11.2613 24.3528 11.0542V10.107C24.3528 9.89998 24.1852 9.73242 23.9781 9.73242C23.7711 9.73242 23.6035 9.89998 23.6035 10.107V11.0542C23.6035 11.2613 23.7711 11.4288 23.9781 11.4288Z" fill="#E85123"/>
<path d="M25.9 11.4288C26.1071 11.4288 26.2746 11.2613 26.2746 11.0542V10.107C26.2746 9.89998 26.1071 9.73242 25.9 9.73242C25.6929 9.73242 25.5254 9.89998 25.5254 10.107V11.0542C25.5254 11.2613 25.6929 11.4288 25.9 11.4288Z" fill="#E85123"/>
<path d="M22.0543 6.33507C22.2614 6.33507 22.4289 6.16752 22.4289 5.96045V5.01329C22.4289 4.80623 22.2614 4.63867 22.0543 4.63867C21.8472 4.63867 21.6797 4.80623 21.6797 5.01329V5.96045C21.6797 6.16752 21.8472 6.33507 22.0543 6.33507Z" fill="#E85123"/>
<path d="M23.9781 6.33507C24.1852 6.33507 24.3528 6.16752 24.3528 5.96045V5.01329C24.3528 4.80623 24.1852 4.63867 23.9781 4.63867C23.7711 4.63867 23.6035 4.80623 23.6035 5.01329V5.96045C23.6035 6.16752 23.7711 6.33507 23.9781 6.33507Z" fill="#E85123"/>
<path d="M25.9 6.33507C26.1071 6.33507 26.2746 6.16752 26.2746 5.96045V5.01329C26.2746 4.80623 26.1071 4.63867 25.9 4.63867C25.6929 4.63867 25.5254 4.80623 25.5254 5.01329V5.96045C25.5254 6.16752 25.6929 6.33507 25.9 6.33507Z" fill="#E85123"/>
<path d="M22.0543 16.4894C22.2614 16.4894 22.4289 16.3218 22.4289 16.1147V15.1676C22.4289 14.9605 22.2614 14.793 22.0543 14.793C21.8472 14.793 21.6797 14.9605 21.6797 15.1676V16.1147C21.6797 16.3218 21.8472 16.4894 22.0543 16.4894Z" fill="#E85123"/>
<path d="M23.9781 16.4894C24.1852 16.4894 24.3528 16.3218 24.3528 16.1147V15.1676C24.3528 14.9605 24.1852 14.793 23.9781 14.793C23.7711 14.793 23.6035 14.9605 23.6035 15.1676V16.1147C23.6035 16.3218 23.7711 16.4894 23.9781 16.4894Z" fill="#E85123"/>
<path d="M25.9 16.4894C26.1071 16.4894 26.2746 16.3218 26.2746 16.1147V15.1676C26.2746 14.9605 26.1071 14.793 25.9 14.793C25.6929 14.793 25.5254 14.9605 25.5254 15.1676V16.1147C25.5254 16.3218 25.6929 16.4894 25.9 16.4894Z" fill="#E85123"/>
<path d="M22.0543 19.7168C21.8472 19.7168 21.6797 19.8844 21.6797 20.0914V21.0386C21.6797 21.2456 21.8472 21.4132 22.0543 21.4132C22.2614 21.4132 22.4289 21.2456 22.4289 21.0386V20.0914C22.4289 19.8844 22.2614 19.7168 22.0543 19.7168Z" fill="#E85123"/>
<path d="M23.9781 19.7168C23.7711 19.7168 23.6035 19.8844 23.6035 20.0914V21.0386C23.6035 21.2456 23.7711 21.4132 23.9781 21.4132C24.1852 21.4132 24.3528 21.2456 24.3528 21.0386V20.0914C24.3528 19.8844 24.1852 19.7168 23.9781 19.7168Z" fill="#E85123"/>
<path d="M25.9 19.7168C25.6929 19.7168 25.5254 19.8844 25.5254 20.0914V21.0386C25.5254 21.2456 25.6929 21.4132 25.9 21.4132C26.1071 21.4132 26.2746 21.2456 26.2746 21.0386V20.0914C26.2746 19.8844 26.1071 19.7168 25.9 19.7168Z" fill="#E85123"/>
</g>
<defs>
<filter id="filter0_d_1_287" x="0" y="0" width="38" height="37.9688" filterUnits="userSpaceOnUse" color-interpolation-filters="sRGB">
<feFlood flood-opacity="0" result="BackgroundImageFix"/>
<feColorMatrix in="SourceAlpha" type="matrix" values="0 0 0 0 0 0 0 0 0 0 0 0 0 0 0 0 0 0 127 0" result="hardAlpha"/>
<feOffset dy="4"/>
<feGaussianBlur stdDeviation="2"/>
<feComposite in2="hardAlpha" operator="out"/>
<feColorMatrix type="matrix" values="0 0 0 0 0 0 0 0 0 0 0 0 0 0 0 0 0 0 0.25 0"/>
<feBlend mode="normal" in2="BackgroundImageFix" result="effect1_dropShadow_1_287"/>
<feBlend mode="normal" in="SourceGraphic" in2="effect1_dropShadow_1_287" result="shape"/>
</filter>
</defs>
</svg>
