<svg width="43" height="37" viewBox="0 0 43 37" fill="none" xmlns="http://www.w3.org/2000/svg">
<path d="M39.1559 29.4113C38.722 29.4113 38.3703 29.763 38.3703 30.1969V33.0723C38.3703 34.374 37.3151 35.4292 36.0134 35.4292H3.92816C2.62649 35.4292 1.57127 34.374 1.57127 33.0723V7.93207C1.57127 6.63039 2.62649 5.57517 3.92816 5.57517H11.6431C12.077 5.57517 12.4287 5.22343 12.4287 4.78954C12.4287 4.35565 12.077 4.00391 11.6431 4.00391H3.92816C1.7587 4.00391 0 5.76261 0 7.93207V33.0723C0 35.2418 1.7587 37.0005 3.92816 37.0005H36.0134C38.1793 36.9919 39.933 35.2382 39.9416 33.0723V30.1969C39.9416 29.763 39.5898 29.4113 39.1559 29.4113Z" fill="white" fill-opacity="0.9"/>
<path d="M40.0669 16.275H39.9412V7.93159C39.9326 5.7657 38.1789 4.01204 36.013 4.00343C35.5791 4.00343 35.2274 4.35517 35.2274 4.78906C35.2274 5.22295 35.5791 5.57469 36.013 5.57469C37.3147 5.57469 38.3699 6.62991 38.3699 7.93159V8.37155H37.49L32.7762 3.65775L29.3509 0.232389C29.2033 0.0836587 29.0025 0 28.7931 0C28.5836 0 28.3828 0.0836587 28.2353 0.232389L24.0871 4.38053L19.9233 0.232389C19.6124 -0.0689536 19.1185 -0.0689536 18.8077 0.232389L10.6685 8.37155H7.85595C7.42205 8.37155 7.07031 8.72329 7.07031 9.15718C7.07031 9.59107 7.42205 9.94281 7.85595 9.94281H38.3699V16.2279H33.7818C30.7446 16.2279 28.2824 18.6901 28.2824 21.7273V22.3244C28.2824 25.3616 30.7446 27.8238 33.7818 27.8238H40.0669C41.3686 27.8238 42.4238 26.7686 42.4238 25.4669V18.6319C42.4238 17.3302 41.3686 16.275 40.0669 16.275ZM28.8009 1.89793L31.0793 4.17627C29.7014 5.10201 27.9004 5.10201 26.5226 4.17627L28.8009 1.89793ZM25.407 5.29187C27.4111 6.82156 30.1908 6.82156 32.1949 5.29187L35.3374 8.4344H28.0624L25.187 5.49613L25.407 5.29187ZM16.2936 8.4344L21.0074 3.7206L22.1073 4.82049L18.4934 8.37155L16.2936 8.4344ZM23.2858 5.87323L25.9255 8.37155H20.7089L23.2858 5.87323ZM19.3733 1.89793L19.9547 2.4793L14.0624 8.37155H12.8997L19.3733 1.89793ZM40.8525 25.4669C40.8525 25.9008 40.5008 26.2526 40.0669 26.2526H33.7818C32.74 26.2526 31.7409 25.8387 31.0042 25.102C30.2675 24.3653 29.8537 23.3662 29.8537 22.3244V21.7273C29.8537 19.5578 31.6124 17.7991 33.7818 17.7991H40.0669C40.5008 17.7991 40.8525 18.1509 40.8525 18.5848V25.4669Z" fill="white" fill-opacity="0.9"/>
<path d="M33.9072 23.6425C34.775 23.6425 35.4785 22.9391 35.4785 22.0713C35.4785 21.2035 34.775 20.5 33.9072 20.5C33.0394 20.5 32.3359 21.2035 32.3359 22.0713C32.3359 22.9391 33.0394 23.6425 33.9072 23.6425Z" fill="white" fill-opacity="0.9"/>
</svg>
