<svg width="39" height="41" viewBox="0 0 39 41" fill="none" xmlns="http://www.w3.org/2000/svg">
<path d="M15.75 33.0643C15.75 33.4892 16.0945 33.8331 16.5188 33.8331C16.9431 33.8331 17.2876 33.4892 17.2876 33.0643V7.08522C17.2876 6.66039 16.9431 6.31641 16.5188 6.31641C16.0945 6.31641 15.75 6.66039 15.75 7.08522V33.0643Z" fill="#E85123"/>
<path d="M22.4783 6.31641C22.0535 6.31641 21.709 6.66039 21.709 7.08522V33.0643C21.709 33.4892 22.0535 33.8331 22.4783 33.8331C22.9032 33.8331 23.2477 33.4892 23.2477 33.0643V7.08522C23.2477 6.65985 22.9032 6.31641 22.4783 6.31641Z" fill="#E85123"/>
<path d="M33.3153 40.1476H38.2299C38.6542 40.1476 38.9987 39.8037 38.9987 39.3788C38.9987 38.954 38.6542 38.61 38.2299 38.61H33.3153C29.8689 38.61 27.065 35.8066 27.065 32.3602C27.065 31.3619 27.2999 30.4178 27.7171 29.5796C29.1343 31.0461 31.1201 31.9593 33.3148 31.9593C35.3505 31.9593 37.0064 30.3044 37.0064 28.2698C37.0064 26.2797 35.4237 24.6525 33.4515 24.5804C33.407 24.5722 33.3614 24.569 33.3148 24.569C31.1201 24.569 29.1343 25.4821 27.7171 26.9487C27.2994 26.1104 27.065 25.1663 27.065 24.168C27.065 23.1702 27.2999 22.2267 27.7171 21.389C29.1343 22.855 31.1201 23.7681 33.3148 23.7681C35.3505 23.7681 37.0064 22.1128 37.0064 20.0776C37.0064 18.0761 35.4058 16.4414 33.4173 16.3871C33.3837 16.3828 33.35 16.3806 33.3153 16.3806C31.1206 16.3806 29.1349 17.2932 27.7182 18.7586C27.2999 17.9204 27.0655 16.9758 27.0655 15.9775C27.0655 14.9802 27.2999 14.0367 27.7171 13.199C29.1338 14.6655 31.1201 15.5787 33.3153 15.5787C35.351 15.5787 37.0069 13.9228 37.0069 11.8871C37.0069 9.89205 35.4156 8.26218 33.4363 8.19816C33.3973 8.19219 33.3571 8.18893 33.3153 8.18893C31.1201 8.18893 29.1343 9.10207 27.7171 10.5681C27.2994 9.73036 27.0655 8.78684 27.0655 7.78906C27.0655 4.34161 29.8695 1.53763 33.3159 1.53763H38.2304C38.6547 1.53763 38.9992 1.19364 38.9992 0.768815C38.9992 0.343986 38.6547 0 38.2304 0H33.3159C29.0215 0 25.5273 3.49412 25.5273 7.78906C25.5273 9.29034 25.9543 10.6934 26.6928 11.8838C25.9543 13.0736 25.5273 14.4767 25.5273 15.9775C25.5273 17.4793 25.9543 18.8823 26.6928 20.0738C25.9543 21.2637 25.5273 22.6667 25.5273 24.168C25.5273 25.6698 25.9543 27.0735 26.6928 28.2644C25.9543 29.4548 25.5273 30.8589 25.5273 32.3608C25.5263 36.6546 29.0209 40.1476 33.3153 40.1476ZM33.2008 26.1077C33.2377 26.1137 33.2768 26.1164 33.3153 26.1164C34.5025 26.1164 35.4688 27.0827 35.4688 28.2704C35.4688 29.4569 34.503 30.4222 33.3153 30.4222C31.4332 30.4222 29.7431 29.5855 28.5966 28.2644C29.7197 26.9704 31.3643 26.1413 33.2008 26.1077ZM33.2301 17.9188C33.2584 17.922 33.2866 17.9236 33.3153 17.9236C34.5025 17.9236 35.4688 18.8899 35.4688 20.0776C35.4688 21.2648 34.503 22.2305 33.3153 22.2305C31.4337 22.2305 29.7436 21.3944 28.5966 20.0738C29.7263 18.7738 31.3822 17.9443 33.2301 17.9188ZM33.2144 9.72819C33.2475 9.73253 33.2811 9.7347 33.3153 9.7347C34.5025 9.7347 35.4688 10.7005 35.4688 11.8876C35.4688 13.0747 34.503 14.0416 33.3153 14.0416C31.4332 14.0416 29.7431 13.2049 28.5961 11.8843C29.7219 10.5876 31.3729 9.75695 33.2144 9.72819Z" fill="#E85123"/>
<path d="M5.68174 38.6106H0.769357C0.344529 38.6106 0 38.9545 0 39.3794C0 39.8042 0.344529 40.1482 0.769357 40.1482H5.68174C9.97668 40.1482 13.4708 36.6552 13.4708 32.3607C13.4708 30.8589 13.0438 29.4553 12.3054 28.2644C13.0438 27.074 13.4708 25.6698 13.4708 24.168C13.4708 22.6667 13.0438 21.2637 12.3048 20.0738C13.0438 18.8829 13.4708 17.4793 13.4708 15.9775C13.4708 14.4767 13.0438 13.0736 12.3054 11.8838C13.0438 10.6934 13.4708 9.29034 13.4708 7.78906C13.4708 3.49412 9.97668 0 5.68174 0H0.769357C0.344529 0 0 0.343986 0 0.768815C0 1.19364 0.344529 1.53763 0.769357 1.53763H5.68174C9.12866 1.53763 11.9326 4.34215 11.9326 7.78906C11.9326 8.78684 11.6982 9.73036 11.281 10.5681C9.86383 9.10207 7.8775 8.18893 5.68228 8.18893C5.64213 8.18893 5.60253 8.19219 5.56346 8.19816C3.5831 8.2611 1.99121 9.8915 1.99121 11.8871C1.99121 13.9228 3.64712 15.5787 5.68228 15.5787C7.8775 15.5787 9.86383 14.6655 11.281 13.199C11.6988 14.0367 11.9326 14.9802 11.9326 15.9775C11.9326 16.9758 11.6977 17.9204 11.2799 18.7586C9.86329 17.2932 7.8775 16.3806 5.68228 16.3806C5.6481 16.3806 5.61446 16.3828 5.58082 16.3871C3.59287 16.4413 1.99121 18.0756 1.99121 20.0776C1.99121 22.1128 3.64712 23.7681 5.68228 23.7681C7.8775 23.7681 9.86329 22.855 11.2805 21.389C11.6982 22.2267 11.9326 23.1702 11.9326 24.168C11.9326 25.1663 11.6977 26.1104 11.2805 26.9487C9.86329 25.4821 7.8775 24.569 5.68228 24.569C5.63617 24.569 5.59167 24.5728 5.54827 24.5804C3.57496 24.6514 1.99121 26.2791 1.99121 28.2698C1.99121 30.3044 3.64712 31.9593 5.68228 31.9593C7.8775 31.9593 9.86329 31.0461 11.2805 29.5796C11.6982 30.4178 11.9326 31.3619 11.9326 32.3602C11.9326 35.8071 9.12866 38.6106 5.68174 38.6106ZM5.68174 14.0416C4.49461 14.0416 3.52884 13.0753 3.52884 11.8876C3.52884 10.7005 4.49407 9.7347 5.68174 9.7347C5.71538 9.7347 5.74902 9.73253 5.78211 9.72819C7.62466 9.75749 9.27515 10.5871 10.4021 11.8843C9.25453 13.2049 7.56444 14.0416 5.68174 14.0416ZM5.68174 22.2311C4.49461 22.2311 3.52884 21.2653 3.52884 20.0782C3.52884 18.891 4.49407 17.9242 5.68174 17.9242C5.71104 17.9242 5.73871 17.9226 5.76692 17.9193C7.61381 17.9443 9.27135 18.7744 10.401 20.0744C9.25344 21.395 7.56336 22.2311 5.68174 22.2311ZM5.68174 30.4222C4.49461 30.4222 3.52884 29.4569 3.52884 28.2704C3.52884 27.0832 4.49407 26.1164 5.68174 26.1164C5.72026 26.1164 5.75824 26.1137 5.79514 26.1077C7.63226 26.1408 9.27786 26.9698 10.401 28.2644C9.25453 29.5855 7.56444 30.4222 5.68174 30.4222Z" fill="#E85123"/>
</svg>
