<svg width="22" height="23" viewBox="0 0 22 23" fill="none" xmlns="http://www.w3.org/2000/svg">
<path d="M11.8202 0.052565C9.26903 -0.207985 6.71398 0.505807 4.6126 2.06611C2.51121 3.62642 1.00075 5.93132 0.351707 8.56806C-0.297335 11.2048 -0.0425648 14.0011 1.07039 16.4563C2.18335 18.9115 4.0818 20.8651 6.42577 21.9674C7.78325 22.6202 9.25171 22.9716 10.7413 23C13.1127 23.0002 15.418 22.1695 17.3009 20.6364C17.5281 20.4521 17.6774 20.1795 17.7158 19.8783C17.7542 19.5772 17.6787 19.2721 17.5059 19.0301C17.42 18.9088 17.3123 18.8068 17.1891 18.7301C17.0659 18.6534 16.9296 18.6034 16.7881 18.5832C16.6466 18.5629 16.5027 18.5727 16.3648 18.612C16.2269 18.6513 16.0977 18.7193 15.9847 18.8121C14.8657 19.7109 13.5577 20.3063 12.1738 20.5467C10.7898 20.7871 9.37165 20.6653 8.04194 20.1918C6.71222 19.7183 5.51102 18.9073 4.54225 17.8291C3.57348 16.7509 2.86632 15.4379 2.48195 14.0038C2.09758 12.5696 2.04759 11.0574 2.33629 9.59805C2.62498 8.1387 3.24368 6.77613 4.13885 5.62823C5.03402 4.48033 6.1787 3.58167 7.47386 3.01001C8.76901 2.43834 10.1756 2.21088 11.572 2.34731C13.7392 2.61406 15.7363 3.72604 17.1772 5.46817C18.618 7.21029 19.4002 9.45877 19.3724 11.7787V12.5589C19.3711 12.8225 19.3199 13.0831 19.2219 13.3252C19.1238 13.5673 18.9809 13.7859 18.8017 13.968C18.6225 14.15 18.4106 14.2918 18.1787 14.3848C17.9467 14.4779 17.6996 14.5202 17.4519 14.5094C16.9581 14.4518 16.5031 14.1971 16.1787 13.7969C15.8544 13.3966 15.6848 12.8804 15.7042 12.3524V7.39574C15.7042 7.09144 15.5905 6.7996 15.3882 6.58443C15.1858 6.36926 14.9114 6.24837 14.6253 6.24837C14.3619 6.246 14.1067 6.3462 13.908 6.53008C13.7092 6.71396 13.5806 6.96881 13.5464 7.24659C12.5423 6.241 11.2142 5.68261 9.83504 5.68616C8.89768 5.69363 7.97773 5.95616 7.16277 6.44873C6.34781 6.94131 5.66498 7.64754 5.1793 8.50019C4.69362 9.35283 4.42125 10.3235 4.38812 11.3198C4.355 12.316 4.56223 13.3047 4.99008 14.1917C5.41793 15.0787 6.05215 15.8345 6.83236 16.387C7.61257 16.9396 8.51279 17.2705 9.44731 17.3484C10.3818 17.4263 11.3195 17.2484 12.1711 16.8318C13.0227 16.4152 13.7599 15.7737 14.3124 14.9684C14.6256 15.4836 15.0427 15.9181 15.5335 16.2405C16.0243 16.5628 16.5765 16.7648 17.1499 16.8318C17.7233 16.8989 18.3035 16.8292 18.8484 16.628C19.3934 16.4267 19.8893 16.0989 20.3002 15.6683C20.6957 15.2682 21.0091 14.7854 21.2207 14.2503C21.4324 13.7152 21.5377 13.1394 21.5301 12.5589V11.7787C21.5543 8.89533 20.5766 6.10398 18.7847 3.93998C16.9928 1.77599 14.5127 0.391684 11.8202 0.052565ZM9.85662 15.0717C9.19726 15.0717 8.55272 14.8637 8.00448 14.4742C7.45625 14.0846 7.02896 13.5309 6.77663 12.883C6.52431 12.2352 6.45829 11.5224 6.58692 10.8346C6.71556 10.1469 7.03307 9.51515 7.4993 9.01932C7.96553 8.52349 8.55955 8.18583 9.20623 8.04903C9.85292 7.91223 10.5232 7.98244 11.1324 8.25078C11.7415 8.51912 12.2622 8.97354 12.6285 9.55658C12.9948 10.1396 13.1904 10.8251 13.1904 11.5263C13.1875 12.4656 12.8354 13.3657 12.2108 14.0299C11.5862 14.6941 10.7399 15.0686 9.85662 15.0717Z" fill="#E85123"/>
</svg>
