<svg width="25" height="26" viewBox="0 0 25 26" fill="none" xmlns="http://www.w3.org/2000/svg">
<path d="M18.0779 25.9117C17.0812 25.9121 16.1018 25.6343 15.2366 25.1059L15.1146 25.0324C9.48939 21.595 4.78324 16.6742 1.44576 10.74L0.809532 9.60724C0.157895 8.44917 -0.112131 7.09142 0.0424871 5.75037C0.197105 4.40932 0.767469 3.16214 1.66268 2.20759L2.93031 0.853448C3.99554 -0.284483 5.72799 -0.284483 6.79225 0.853448L9.58509 3.8369C10.0054 4.28802 10.2766 4.87317 10.3577 5.50373C10.4388 6.13429 10.3253 6.7759 10.0344 7.33138L8.98469 9.32276C8.96263 9.36466 8.954 9.41312 8.96012 9.46074C8.96624 9.50837 8.98677 9.55255 9.01858 9.58655L15.2366 16.229C15.269 16.2628 15.3107 16.2845 15.3556 16.2909C15.4004 16.2972 15.446 16.2878 15.4855 16.2641L17.3467 15.1438L17.3477 15.1428C17.8678 14.8324 18.4683 14.7113 19.0585 14.7979C19.6487 14.8845 20.1965 15.1741 20.6189 15.6228L23.4127 18.6083C24.478 19.7462 24.478 21.5969 23.4127 22.7338L22.089 24.1469C21.5618 24.7082 20.9361 25.153 20.2479 25.4558C19.5596 25.7587 18.8222 25.9136 18.0779 25.9117ZM4.86128 2.06897C4.65792 2.06897 4.45456 2.15172 4.29961 2.31724L3.03199 3.67035C2.44279 4.29862 2.06739 5.11949 1.9656 6.00214C1.86381 6.88479 2.04149 7.77843 2.47032 8.54069L3.10656 9.67345C6.27237 15.3028 10.7364 19.9711 16.0723 23.2324L16.1944 23.3059C17.6721 24.209 19.5314 23.9534 20.7187 22.6831L22.0425 21.27C22.1163 21.1912 22.1748 21.0977 22.2147 20.9947C22.2547 20.8918 22.2752 20.7814 22.2752 20.67C22.2752 20.5586 22.2547 20.4482 22.2147 20.3453C22.1748 20.2423 22.1163 20.1488 22.0425 20.07L19.2487 17.0845C19.1257 16.9539 18.9662 16.8697 18.7944 16.8447C18.6227 16.8197 18.4479 16.8552 18.2967 16.9459L16.4355 18.0662C16.0274 18.3103 15.5559 18.4057 15.0925 18.3379C14.6291 18.2702 14.199 18.0429 13.8673 17.6907L7.64928 11.0483C7.31919 10.6944 7.10625 10.235 7.0428 9.74007C6.97935 9.2451 7.06887 8.74153 7.29775 8.30586L8.34749 6.31552C8.43183 6.15397 8.46468 5.96749 8.4411 5.78424C8.41752 5.60099 8.33877 5.4309 8.21675 5.29966L5.42295 2.31724C5.34924 2.23839 5.26168 2.17587 5.16529 2.13326C5.06891 2.09066 4.96559 2.06881 4.86128 2.06897Z" fill="#E85123"/>
</svg>
