<svg width="19" height="26" viewBox="0 0 19 26" fill="none" xmlns="http://www.w3.org/2000/svg">
<path d="M9.36111 11.5016C9.82397 11.5016 10.2764 11.355 10.6613 11.0802C11.0462 10.8055 11.3461 10.4151 11.5232 9.95828C11.7004 9.50147 11.7467 8.9988 11.6564 8.51385C11.5661 8.0289 11.3432 7.58344 11.0159 7.23381C10.6886 6.88418 10.2716 6.64607 9.81768 6.54961C9.36371 6.45315 8.89316 6.50266 8.46553 6.69188C8.0379 6.88109 7.67239 7.20153 7.41524 7.61265C7.15809 8.02377 7.02083 8.50712 7.02083 9.00157C7.02083 9.66462 7.2674 10.3005 7.70628 10.7693C8.14517 11.2382 8.74043 11.5016 9.36111 11.5016ZM8.53031 20.1391C8.63909 20.2562 8.76851 20.3492 8.9111 20.4127C9.05369 20.4762 9.20664 20.5088 9.36111 20.5088C9.51558 20.5088 9.66853 20.4762 9.81112 20.4127C9.95371 20.3492 10.0831 20.2562 10.1919 20.1391L14.9778 15.0141C16.0894 13.8273 16.8465 12.3149 17.1534 10.6684C17.4603 9.02186 17.3032 7.31508 16.702 5.76394C16.1007 4.21279 15.0824 2.88696 13.7757 1.95415C12.469 1.02133 10.9327 0.523438 9.36111 0.523438C7.78951 0.523438 6.25322 1.02133 4.94654 1.95415C3.63986 2.88696 2.6215 4.21279 2.02027 5.76394C1.41903 7.31508 1.26193 9.02186 1.56884 10.6684C1.87574 12.3149 2.63287 13.8273 3.74444 15.0141L8.53031 20.1391ZM3.77955 8.42657C3.8595 7.53535 4.12476 6.67444 4.55596 5.90672C4.98717 5.13899 5.57343 4.48383 6.27194 3.98907C7.18957 3.34545 8.26336 3.00252 9.36111 3.00252C10.4589 3.00252 11.5326 3.34545 12.4503 3.98907C13.1441 4.48214 13.7271 5.13333 14.1572 5.89581C14.5873 6.65829 14.8539 7.51311 14.9378 8.39881C15.0218 9.2845 14.9209 10.1791 14.6425 11.0181C14.3641 11.8572 13.9152 12.62 13.3279 13.2516L9.36111 17.4891L5.39434 13.2516C4.80637 12.6261 4.35634 11.8685 4.077 11.0338C3.79767 10.1992 3.69605 9.30847 3.77955 8.42657ZM17.5521 23.0016H1.17014C0.859799 23.0016 0.56217 23.1333 0.342726 23.3677C0.123282 23.6021 0 23.9201 0 24.2516C0 24.5831 0.123282 24.901 0.342726 25.1355C0.56217 25.3699 0.859799 25.5016 1.17014 25.5016H17.5521C17.8624 25.5016 18.1601 25.3699 18.3795 25.1355C18.5989 24.901 18.7222 24.5831 18.7222 24.2516C18.7222 23.9201 18.5989 23.6021 18.3795 23.3677C18.1601 23.1333 17.8624 23.0016 17.5521 23.0016Z" fill="#E85123"/>
</svg>
