<svg width="25" height="26" viewBox="0 0 25 26" fill="none" xmlns="http://www.w3.org/2000/svg">
<path d="M22.9605 25.79H2.03947C0.921053 25.79 0 25.2076 0 24.5005V1.2895C0 0.582355 0.921053 0 2.03947 0H22.9605C24.0789 0 25 0.582355 25 1.2895V24.5005C25 25.2076 24.0789 25.79 22.9605 25.79ZM2.03947 0.831936C1.64474 0.831936 1.31579 1.03992 1.31579 1.2895V24.5005C1.31579 24.7501 1.64474 24.9581 2.03947 24.9581H22.9605C23.3553 24.9581 23.6842 24.7501 23.6842 24.5005V1.2895C23.6842 1.03992 23.3553 0.831936 22.9605 0.831936H2.03947Z" fill="#E85123"/>
<path d="M12.7618 24.3314C13.5612 24.3314 14.2092 23.9031 14.2092 23.3747C14.2092 22.8463 13.5612 22.418 12.7618 22.418C11.9625 22.418 11.3145 22.8463 11.3145 23.3747C11.3145 23.9031 11.9625 24.3314 12.7618 24.3314Z" fill="#E85123"/>
<path d="M14.7375 2.91006H10.7243C10.3296 2.91006 10.0664 2.74367 10.0664 2.49409C10.0664 2.24451 10.3296 2.07812 10.7243 2.07812H14.7375C15.1322 2.07812 15.3954 2.24451 15.3954 2.49409C15.3954 2.74367 15.1322 2.91006 14.7375 2.91006Z" fill="#E85123"/>
<path d="M24.3421 4.98819H0.657895C0.263158 4.98819 0 4.8218 0 4.57222C0 4.32264 0.263158 4.15625 0.657895 4.15625H24.3421C24.7368 4.15625 25 4.32264 25 4.57222C25 4.8218 24.7368 4.98819 24.3421 4.98819Z" fill="#E85123"/>
<path d="M24.3421 21.6679H0.657895C0.263158 21.6679 0 21.5015 0 21.2519C0 21.0023 0.263158 20.8359 0.657895 20.8359H24.3421C24.7368 20.8359 25 21.0023 25 21.2519C25 21.5015 24.7368 21.6679 24.3421 21.6679Z" fill="#E85123"/>
<path d="M17.3013 16.3451C17.1039 16.3451 16.9723 16.3035 16.8408 16.2203L14.0776 14.4732L13.2223 15.014C13.025 15.1388 12.7618 15.1804 12.5645 15.0972C12.3013 15.0556 12.1697 14.9308 12.1039 14.7644L11.3145 11.4367C11.3145 11.3119 11.3802 11.1871 11.5118 11.0623C11.6434 10.9791 11.8408 10.9375 12.1039 10.9375L17.3671 11.4367C17.6302 11.4783 17.8276 11.5615 17.8934 11.7278C17.9592 11.8942 17.8934 12.0606 17.7618 12.1438L16.9066 12.6846L19.6697 14.4316C19.9329 14.598 19.9329 14.8476 19.6697 15.014L17.7618 16.2203C17.6302 16.3035 17.4987 16.3451 17.3013 16.3451ZM14.0776 13.4749C14.275 13.4749 14.4066 13.5165 14.5381 13.5997L17.3013 15.3468L18.2223 14.7644L15.4592 13.0173C15.196 12.851 15.196 12.6014 15.4592 12.435L15.8539 12.1854L12.7618 11.8942L13.2223 13.8493L13.6171 13.5997C13.7487 13.5165 13.8802 13.4749 14.0776 13.4749Z" fill="#E85123"/>
<path d="M12.3677 13.5594H5.78875C5.39402 13.5594 5.13086 13.393 5.13086 13.1434V7.48628C5.13086 7.2367 5.39402 7.07031 5.78875 7.07031H14.7361C15.1309 7.07031 15.394 7.2367 15.394 7.48628V11.646C15.394 11.8955 15.1309 12.0619 14.7361 12.0619C14.3414 12.0619 14.0782 11.8955 14.0782 11.646V7.90225H6.44665V12.7275H12.3677C12.7624 12.7275 13.0256 12.8939 13.0256 13.1434C13.0256 13.393 12.7624 13.5594 12.3677 13.5594Z" fill="#E85123"/>
<path d="M19.0123 18.7147H5.98602C5.59128 18.7147 5.32812 18.5484 5.32812 18.2988C5.32812 18.0492 5.59128 17.8828 5.98602 17.8828H19.0123C19.4071 17.8828 19.6702 18.0492 19.6702 18.2988C19.6702 18.5484 19.3413 18.7147 19.0123 18.7147Z" fill="#E85123"/>
</svg>
