<svg width="40" height="34" viewBox="0 0 40 34" fill="none" xmlns="http://www.w3.org/2000/svg">
<path d="M19.0356 12.665C19.0397 12.7395 19.0295 12.8141 19.0054 12.8846C18.9814 12.955 18.944 13.0199 18.8954 13.0756C18.8468 13.1313 18.788 13.1766 18.7223 13.2091C18.6566 13.2415 18.5853 13.2604 18.5124 13.2646C17.4849 13.3246 16.4307 13.3555 15.3782 13.3555C14.7071 13.3555 14.0311 13.3432 13.3689 13.3192C12.9996 13.3055 12.6213 13.2873 12.2444 13.2655C12.1715 13.2613 12.1001 13.2424 12.0342 13.2099C11.9684 13.1774 11.9095 13.132 11.8608 13.0763C11.7626 12.9636 11.7121 12.8157 11.7204 12.665C11.7288 12.5143 11.7954 12.3731 11.9055 12.2726C12.0156 12.1721 12.1602 12.1205 12.3076 12.129C12.6769 12.1508 13.0471 12.1681 13.4084 12.1813C14.0578 12.2054 14.7204 12.2172 15.3782 12.2172C16.4098 12.2172 17.4431 12.1877 18.4493 12.129C18.5966 12.1206 18.741 12.1723 18.851 12.2728C18.9609 12.3733 19.0273 12.5144 19.0356 12.665ZM12.2444 21.5651C12.6213 21.587 13 21.6051 13.3689 21.6183C14.0311 21.6424 14.7071 21.6551 15.3782 21.6551C16.4307 21.6551 17.4849 21.6247 18.5124 21.5642C18.5854 21.56 18.6568 21.5411 18.7226 21.5086C18.7885 21.4761 18.8474 21.4307 18.896 21.375C18.9447 21.3192 18.9821 21.2542 19.0062 21.1836C19.0303 21.1131 19.0406 21.0383 19.0364 20.9637C19.0323 20.8891 19.0138 20.816 18.9821 20.7487C18.9503 20.6814 18.9059 20.6211 18.8514 20.5713C18.7969 20.5216 18.7333 20.4833 18.6643 20.4586C18.5953 20.434 18.5223 20.4235 18.4493 20.4277C17.4431 20.4859 16.4098 20.5159 15.3782 20.5159C14.7204 20.5159 14.0578 20.5036 13.4084 20.48C13.0471 20.4668 12.6769 20.4491 12.3076 20.4277C12.1602 20.4192 12.0156 20.4708 11.9055 20.5713C11.7954 20.6719 11.7288 20.813 11.7204 20.9637C11.7121 21.1144 11.7626 21.2623 11.8608 21.375C11.9591 21.4876 12.0971 21.5557 12.2444 21.5642V21.5651ZM18.4493 28.686C17.4436 28.7446 16.4102 28.7742 15.3782 28.7742C14.7191 28.7742 14.0564 28.7624 13.4084 28.7383C13.0458 28.7251 12.6756 28.7078 12.3076 28.6864C12.2322 28.6771 12.1558 28.6838 12.083 28.7058C12.0103 28.7279 11.9427 28.765 11.8845 28.8149C11.8263 28.8647 11.7787 28.9262 11.7446 28.9956C11.7106 29.065 11.6908 29.1408 11.6864 29.2183C11.6821 29.2958 11.6934 29.3734 11.7195 29.4463C11.7456 29.5191 11.7861 29.5858 11.8384 29.6421C11.8907 29.6983 11.9537 29.7431 12.0235 29.7735C12.0934 29.8039 12.1685 29.8193 12.2444 29.8188C12.62 29.8411 13 29.8588 13.3689 29.8725C14.0298 29.8966 14.7062 29.9089 15.3782 29.9089C16.4316 29.9089 17.4858 29.8788 18.5124 29.8179C18.6598 29.8094 18.7978 29.7413 18.896 29.6287C18.9943 29.5161 19.0448 29.3681 19.0364 29.2174C19.0281 29.0667 18.9615 28.9256 18.8514 28.825C18.7413 28.7245 18.5967 28.6729 18.4493 28.6814V28.686ZM33.7827 11.2257C33.7827 11.9503 33.5726 12.6586 33.179 13.2611C32.7855 13.8636 32.2261 14.3332 31.5716 14.6105C30.9171 14.8878 30.1969 14.9603 29.5021 14.8189C28.8073 14.6776 28.1691 14.3287 27.6682 13.8163C27.1673 13.3039 26.8261 12.6511 26.6879 11.9405C26.5497 11.2298 26.6207 10.4932 26.8918 9.82372C27.1629 9.15428 27.6219 8.5821 28.211 8.17954C28.8 7.77698 29.4925 7.56211 30.2009 7.56211C31.1505 7.56319 32.0609 7.94953 32.7324 8.63635C33.4039 9.32318 33.7816 10.2544 33.7827 11.2257ZM32.6716 11.2257C32.6716 10.7259 32.5267 10.2373 32.2552 9.82173C31.9837 9.40615 31.5978 9.08224 31.1464 8.89097C30.6949 8.6997 30.1981 8.64966 29.7189 8.74716C29.2396 8.84467 28.7994 9.08536 28.4539 9.43878C28.1083 9.79221 27.873 10.2425 27.7777 10.7327C27.6824 11.2229 27.7313 11.731 27.9183 12.1928C28.1053 12.6546 28.422 13.0493 28.8283 13.3269C29.2346 13.6046 29.7122 13.7528 30.2009 13.7528C30.8559 13.7521 31.4839 13.4856 31.9471 13.0119C32.4103 12.5381 32.6708 11.8957 32.6716 11.2257ZM40 9.93694V12.5413C40 12.6786 39.9513 12.8113 39.8631 12.9147C39.7748 13.0182 39.653 13.0855 39.52 13.1041L37.6129 13.3728C37.4483 13.9714 37.2145 14.5478 36.9164 15.0898L38.08 16.66C38.161 16.7694 38.2006 16.9051 38.1914 17.0421C38.1823 17.179 38.125 17.308 38.0302 17.4051L36.2298 19.2467C36.1348 19.3437 36.0087 19.4022 35.8749 19.4116C35.741 19.4209 35.6083 19.3804 35.5013 19.2976L33.9662 18.1075C33.4362 18.4123 32.8725 18.6513 32.2871 18.8194L32.0244 20.7723C32.0062 20.9083 31.9404 21.033 31.8393 21.1232C31.7381 21.2135 31.6084 21.2632 31.4742 21.2633H30.7556V29.3829C30.7556 30.764 29.1111 31.9423 26 32.7924C22.5218 33.6426 18.9536 34.0468 15.3778 33.9957C11.8019 34.0467 8.2338 33.6425 4.75556 32.7924C1.64444 31.9423 0 30.764 0 29.3829V4.6154C0 3.23432 1.64444 2.056 4.75556 1.2059C8.23388 0.356365 11.802 -0.0472362 15.3778 0.00439334C20.7289 0.00439334 25.5876 0.770394 28.3342 2.02509L28.3787 1.70687C28.3969 1.5709 28.4627 1.44629 28.5639 1.35611C28.665 1.26594 28.7947 1.21629 28.9289 1.21636H31.4751C31.6093 1.21638 31.7389 1.26606 31.84 1.35623C31.9412 1.44639 32.007 1.57094 32.0253 1.70687L32.288 3.65801C32.8734 3.82599 33.4372 4.06499 33.9671 4.36991L35.5013 3.17932C35.6082 3.09627 35.741 3.05567 35.8749 3.06503C36.0088 3.0744 36.1349 3.13308 36.2298 3.23023L38.0302 5.07181C38.1248 5.1689 38.1819 5.29766 38.1911 5.43439C38.2002 5.57112 38.1608 5.70663 38.08 5.81599L36.9169 7.38618C37.2147 7.92822 37.4484 8.50462 37.6129 9.1032L39.52 9.37187C39.6533 9.39068 39.7754 9.45832 39.8637 9.56223C39.952 9.66615 40.0004 9.79928 40 9.93694ZM1.11111 4.6154C1.11111 5.18637 2.14 6.13421 5.04044 6.92521C8.42575 7.74988 11.8982 8.1408 15.3778 8.08899C18.0877 8.10493 20.7939 7.88287 23.4667 7.42527C23.4738 7.41255 23.4804 7.39936 23.4871 7.38663L22.3222 5.81599C22.241 5.70664 22.2013 5.57089 22.2105 5.4339C22.2196 5.29691 22.277 5.16795 22.372 5.0709L24.1724 3.22932C24.2673 3.13217 24.3934 3.07349 24.5273 3.06413C24.6613 3.05476 24.794 3.09536 24.9009 3.17841L26.436 4.36809C26.9658 4.06325 27.5294 3.82426 28.1147 3.65619L28.176 3.20159C25.6831 1.94462 20.7147 1.13953 15.3782 1.13953C11.8984 1.08822 8.42589 1.47944 5.04044 2.30421C2.14 3.09658 1.11111 4.04305 1.11111 4.6154ZM20.4022 12.5413V9.93694C20.4022 9.79966 20.4508 9.66702 20.5389 9.5635C20.6271 9.45998 20.7488 9.39256 20.8818 9.37369L22.7893 9.10502C22.8293 8.95924 22.8738 8.81483 22.9227 8.67178C20.425 9.05144 17.9028 9.23654 15.3778 9.22549C11.8019 9.27652 8.2338 8.87231 4.75556 8.02216C3.45805 7.72379 2.22358 7.18916 1.11111 6.44379V12.8909V12.8977C1.18133 14.3375 6.64267 16.3459 15.3778 16.3459C17.9243 16.3574 20.4677 16.1635 22.9844 15.7658L23.4853 15.0898C23.1872 14.5478 22.9536 13.9712 22.7893 13.3723L20.8818 13.1037C20.749 13.0849 20.6272 13.0177 20.5391 12.9143C20.451 12.8109 20.4024 12.6785 20.4022 12.5413ZM1.11111 21.1519V21.1619C1.11288 21.1893 1.11659 21.2165 1.12222 21.2433C1.25022 21.8488 2.42089 22.7626 5.32222 23.5122C8.62 24.2801 11.995 24.6463 15.3769 24.6032C23.9102 24.6032 29.3022 22.6939 29.6276 21.2633H28.928C28.7937 21.2633 28.664 21.2136 28.5629 21.1234C28.4617 21.0331 28.3959 20.9084 28.3778 20.7723L28.1147 18.8216C27.5294 18.6534 26.9658 18.4143 26.436 18.1093L24.9009 19.2994C24.7939 19.3823 24.6612 19.4228 24.5273 19.4134C24.3935 19.404 24.2674 19.3455 24.1724 19.2485L22.372 17.4069C22.275 17.3074 22.2175 17.1745 22.2107 17.0341C19.9456 17.3401 17.663 17.4903 15.3782 17.4837C11.8252 17.5332 8.27978 17.1353 4.82178 16.2991C3.50322 15.9917 2.2474 15.4508 1.11111 14.7007V21.1519ZM29.6444 29.3829V22.9571C28.5139 23.7033 27.2646 24.2418 25.9529 24.5482C22.4891 25.3884 18.9373 25.7881 15.3778 25.7384C9.58933 25.7384 3.54311 24.7873 1.11111 22.9535V29.3829C1.11111 29.9539 2.14 30.9017 5.04044 31.6927C8.42575 32.5174 11.8981 32.9087 15.3778 32.8574C18.8577 32.9087 22.3304 32.5175 25.716 31.6927C28.6164 30.9017 29.6444 29.9552 29.6444 29.3829ZM38.8889 10.432L37.0907 10.1801C36.9787 10.1644 36.8741 10.1141 36.7908 10.036C36.7075 9.95784 36.6494 9.85557 36.6244 9.74282C36.4608 9.0018 36.1744 8.29487 35.7778 7.65257C35.7176 7.55473 35.688 7.44044 35.6929 7.32495C35.6978 7.20946 35.737 7.09825 35.8053 7.00613L36.9018 5.52596L35.7862 4.38491L34.3391 5.50686C34.249 5.57664 34.1403 5.61667 34.0273 5.62162C33.9144 5.62658 33.8027 5.59622 33.7071 5.5346C33.0792 5.13021 32.3886 4.83812 31.6649 4.67086C31.5547 4.64518 31.4548 4.58579 31.3784 4.50061C31.302 4.41542 31.2528 4.30847 31.2373 4.19398L30.9898 2.35513H29.412L29.1644 4.19444C29.149 4.30892 29.0999 4.41586 29.0235 4.50099C28.9471 4.58612 28.8471 4.64538 28.7369 4.67086C28.0132 4.83812 27.3225 5.13021 26.6947 5.5346C26.5992 5.59637 26.4875 5.62682 26.3746 5.62186C26.2618 5.6169 26.1531 5.57678 26.0631 5.50686L24.6156 4.38491L23.5 5.52596L24.5969 7.00659C24.665 7.09879 24.7039 7.21007 24.7084 7.32552C24.7129 7.44098 24.6829 7.55509 24.6222 7.65257C24.2269 8.2948 23.9413 9.00119 23.7778 9.74146C23.7531 9.85449 23.6952 9.95709 23.6119 10.0355C23.5285 10.1139 23.4237 10.1644 23.3116 10.1801L21.5133 10.4334V12.044L23.3116 12.2972C23.4234 12.3131 23.5279 12.3634 23.6111 12.4416C23.6943 12.5197 23.7523 12.6219 23.7773 12.7345C23.9413 13.4758 24.2276 14.183 24.624 14.8257C24.6843 14.9234 24.714 15.0376 24.7091 15.153C24.7043 15.2684 24.6651 15.3796 24.5969 15.4717L23.5 16.9537L24.6156 18.0947L26.0631 16.9728C26.1532 16.9031 26.2618 16.8631 26.3747 16.8582C26.4875 16.8532 26.5991 16.8835 26.6947 16.945C27.323 17.3506 28.0144 17.6437 28.7391 17.8115C28.8492 17.8371 28.949 17.8964 29.0253 17.9815C29.1016 18.0667 29.1508 18.1735 29.1662 18.2879L29.4138 20.1272H30.9916L31.2396 18.2879C31.2549 18.1734 31.304 18.0665 31.3803 17.9813C31.4566 17.8961 31.5565 17.8367 31.6667 17.8111C32.3904 17.6438 33.081 17.3517 33.7089 16.9473C33.8045 16.8858 33.9162 16.8554 34.0291 16.8604C34.142 16.8653 34.2508 16.9053 34.3409 16.975L35.788 18.097L36.9022 16.9537L35.8053 15.4717C35.737 15.3796 35.6978 15.2684 35.6929 15.1529C35.688 15.0374 35.7176 14.9231 35.7778 14.8252C36.1745 14.1827 36.4609 13.4754 36.6244 12.7341C36.6495 12.6214 36.7075 12.5191 36.7908 12.441C36.8741 12.3629 36.9787 12.3126 37.0907 12.2968L38.8889 12.044V10.432Z" fill="white"/>
</svg>
