<svg width="40" height="43" viewBox="0 0 40 43" fill="none" xmlns="http://www.w3.org/2000/svg">
<path d="M4.27701 4.92143H7.6968C8.00686 4.92143 8.25308 5.17027 8.25308 5.48361V7.52039H10.3961V3.52057C10.3961 3.20722 10.6424 2.95839 10.9524 2.95839H14.3722C14.6823 2.95839 14.9285 3.20722 14.9285 3.52057V7.51117H17.0716V0.562186C17.0716 0.248836 17.3178 0 17.6279 0H21.0476C21.3577 0 21.6039 0.248836 21.6039 0.562186V7.51117H34.4988C35.6022 7.51117 36.4959 8.42357 36.4959 9.52951V23.9436C41.8673 28.948 40.9371 37.8139 34.5718 41.528C32.146 42.9473 29.2369 43.3989 26.3278 42.6247C24.969 42.2561 23.747 41.6478 22.6891 40.8552H8.66346C8.35339 40.8552 8.10717 40.6064 8.10717 40.293V37.6849C8.10717 36.6895 9.11031 36.0536 10.1043 36.0536H14.8282V32.4501H1.99715C0.893704 32.4501 0 31.5469 0 30.4318V9.53872C0 8.42357 0.893704 7.52039 1.99715 7.52039H3.72073V5.48361C3.72073 5.17027 3.96695 4.92143 4.27701 4.92143ZM8.24396 8.63554V13.9901C8.24396 14.3035 7.99774 14.5523 7.68768 14.5523H4.27701C3.96695 14.5523 3.72073 14.3035 3.72073 13.9901V8.63554H1.99715C1.50471 8.63554 1.10345 9.04105 1.10345 9.53872V28.1093H18.9593C21.4763 21.446 29.5743 18.9484 35.356 23.0496V9.53872C35.356 9.04105 34.9548 8.63554 34.4623 8.63554H21.5674V13.9901C21.5674 14.3035 21.3212 14.5523 21.0112 14.5523H17.5914C17.2813 14.5523 17.0351 14.3035 17.0351 13.9901V8.63554H14.892V13.9901C14.892 14.3035 14.6458 14.5523 14.3357 14.5523H10.916C10.6059 14.5523 10.3597 14.3035 10.3597 13.9901V8.63554H8.24396ZM7.14051 6.03658H4.8333V13.4279H7.14051V6.03658ZM20.464 1.12437H18.1568V13.4279H20.464V1.12437ZM13.7977 4.08276H11.4905V13.4279H13.7977V4.08276ZM20.9382 26.6255L23.1633 27.925C23.7743 27.0218 24.586 26.2661 25.507 25.7315C27.0665 24.7915 29.0819 24.4873 30.9787 25.0034C32.7023 25.4735 34.1158 26.5425 35.0551 27.925L37.2802 26.6347C34.4714 22.2939 28.7536 20.8562 24.2303 23.492C22.9171 24.2569 21.7863 25.3168 20.9382 26.6255ZM22.6071 28.8834L20.3819 27.5932C19.7344 28.8927 19.3332 30.4594 19.3332 31.9063C19.3332 33.8417 19.7436 35.3348 20.6373 36.966C21.8319 39.1595 24.1118 40.929 26.5375 41.5557C27.3127 41.7492 27.7595 41.8414 28.5347 41.8874V39.2977C23.5099 38.9014 20.4184 33.5007 22.6071 28.8834ZM37.8183 27.5932L35.5931 28.8927C37.2255 32.3211 35.9579 36.4407 32.7023 38.3392C31.8086 38.8738 30.7051 39.2148 29.6564 39.2977V41.8874C31.2705 41.7953 32.6384 41.3437 34.0155 40.5695C36.1585 39.3069 37.8274 37.2241 38.5296 34.6159C38.5296 34.5975 38.5387 34.579 38.5387 34.5606C39.1771 32.1367 38.8579 29.676 37.8183 27.5932ZM28.3888 34.7265C30.7142 35.3532 32.7479 32.8648 31.4803 30.6069C30.7598 29.3258 29.0819 28.8374 27.6957 29.63C26.4281 30.358 25.9448 32.0814 26.7108 33.427C27.0665 34.0537 27.6501 34.5329 28.3888 34.7265ZM31.0334 35.4177C29.1822 36.496 26.8202 35.8509 25.7533 33.9892C24.6863 32.1736 25.3064 29.7405 27.1668 28.653C29.018 27.5747 31.3799 28.2107 32.4469 30.0815C33.5139 31.9432 32.8847 34.3394 31.0334 35.4177ZM27.5224 37.989C29.1457 38.4314 30.7963 38.1641 32.146 37.3715C35.0642 35.6665 36.0673 31.8971 34.3802 28.948C32.6931 25.9988 28.9633 24.985 26.0451 26.69C24.6954 27.4734 23.6376 28.7913 23.2089 30.4318C22.3426 33.7311 24.2668 37.1043 27.5224 37.989ZM21.3759 39.7493C20.6281 38.9936 20.008 38.118 19.5156 37.1872H10.1226C9.73955 37.1872 9.22886 37.39 9.22886 37.7033V39.7493H21.3759ZM18.9958 36.072C18.5489 34.9385 18.2936 33.7127 18.248 32.4685H15.9499V36.072H18.9958ZM18.2571 31.3442C18.3027 30.6437 18.4121 29.9341 18.6036 29.2244H1.10345V30.441C1.10345 30.9386 1.50471 31.3442 1.99715 31.3442H18.2571Z" fill="#E85123"/>
</svg>
