<svg width="34" height="34" viewBox="0 0 34 34" fill="none" xmlns="http://www.w3.org/2000/svg">
<path d="M5.78896 22.8438H5.37061C4.85986 22.8438 4.37003 23.0466 4.00887 23.4078C3.64772 23.769 3.44482 24.2588 3.44482 24.7695C3.44482 25.2803 3.64772 25.7701 4.00887 26.1313C4.37003 26.4924 4.85986 26.6953 5.37061 26.6953H5.78896C6.29971 26.6953 6.78954 26.4924 7.1507 26.1313C7.51185 25.7701 7.71475 25.2803 7.71475 24.7695C7.71475 24.2588 7.51185 23.769 7.1507 23.4078C6.78954 23.0466 6.29971 22.8438 5.78896 22.8438ZM5.78896 25.6328H5.37061C5.14165 25.6328 4.92207 25.5419 4.76017 25.38C4.59828 25.2181 4.50732 24.9985 4.50732 24.7695C4.50732 24.5406 4.59828 24.321 4.76017 24.1591C4.92207 23.9972 5.14165 23.9062 5.37061 23.9062H5.78896C6.01792 23.9062 6.2375 23.9972 6.3994 24.1591C6.56129 24.321 6.65225 24.5406 6.65225 24.7695C6.65225 24.9985 6.56129 25.2181 6.3994 25.38C6.2375 25.5419 6.01792 25.6328 5.78896 25.6328ZM21.7161 22.8438H21.2977C20.787 22.8438 20.2972 23.0466 19.936 23.4078C19.5749 23.769 19.372 24.2588 19.372 24.7695C19.372 25.2803 19.5749 25.7701 19.936 26.1313C20.2972 26.4924 20.787 26.6953 21.2977 26.6953H21.7161C22.2269 26.6953 22.7167 26.4924 23.0778 26.1313C23.439 25.7701 23.6419 25.2803 23.6419 24.7695C23.6419 24.2588 23.439 23.769 23.0778 23.4078C22.7167 23.0466 22.2269 22.8438 21.7161 22.8438ZM21.7161 25.6328H21.2977C21.0688 25.6328 20.8492 25.5419 20.6873 25.38C20.5254 25.2181 20.4345 24.9985 20.4345 24.7695C20.4345 24.5406 20.5254 24.321 20.6873 24.1591C20.8492 23.9972 21.0688 23.9062 21.2977 23.9062H21.7161C21.9451 23.9062 22.1646 23.9972 22.3265 24.1591C22.4884 24.321 22.5794 24.5406 22.5794 24.7695C22.5794 24.9985 22.4884 25.2181 22.3265 25.38C22.1646 25.5419 21.9451 25.6328 21.7161 25.6328ZM17.7305 23.375C17.7305 23.2341 17.6745 23.099 17.5749 22.9993C17.4752 22.8997 17.3401 22.8438 17.1992 22.8438H9.82812C9.68723 22.8438 9.5521 22.8997 9.45247 22.9993C9.35285 23.099 9.29688 23.2341 9.29688 23.375V26.0977C9.29688 26.2386 9.35285 26.3737 9.45247 26.4733C9.5521 26.5729 9.68723 26.6289 9.82812 26.6289H17.1992C17.3401 26.6289 17.4752 26.5729 17.5749 26.4733C17.6745 26.3737 17.7305 26.2386 17.7305 26.0977V23.375ZM16.668 25.5664H10.3594V23.9062H16.668V25.5664Z" fill="#E85122"/>
<path d="M32.5391 3.1875C32.68 3.1875 32.8151 3.13153 32.9147 3.0319C33.0143 2.93227 33.0703 2.79715 33.0703 2.65625C33.0703 2.51535 33.0143 2.38023 32.9147 2.2806C32.8151 2.18097 32.68 2.125 32.5391 2.125H31.0781V1.818C31.0781 1.52462 30.8656 1.26172 30.5718 1.26172H27.982C26.8443 1.26172 25.9009 2.125 25.7468 3.25391H7.74403C6.73134 3.25391 5.76012 3.6562 5.04404 4.37228C4.32796 5.08836 3.92567 6.05957 3.92567 7.07227C3.92567 8.08496 4.32796 9.05617 5.04404 9.77225C5.76012 10.4883 6.73134 10.8906 7.74403 10.8906H28.164C28.5284 10.8883 28.8897 10.9581 29.2271 11.096C29.5644 11.2338 29.8712 11.4371 30.1297 11.694C30.3882 11.9509 30.5933 12.2564 30.7333 12.5929C30.8733 12.9293 30.9453 13.2902 30.9453 13.6547V21.7562C30.9453 23.2941 29.7025 24.5703 28.1646 24.5703H26.1641V22.6934C26.1619 22.2747 26.0754 21.8607 25.9096 21.4762C25.7438 21.0916 25.5021 20.7445 25.1991 20.4555L24.6474 19.8699L22.715 14.6677C22.554 14.2404 22.2665 13.8723 21.8908 13.6127C21.5151 13.3531 21.0692 13.2143 20.6125 13.2148H6.81587C6.35947 13.2144 5.91381 13.3533 5.53848 13.6129C5.16316 13.8726 4.87606 14.2407 4.71557 14.6679L2.80898 19.809L2.01649 20.5401C1.67619 20.8297 1.40278 21.1897 1.21515 21.5953C1.02751 22.0009 0.930117 22.4423 0.929688 22.8892V32.182C0.930632 32.3264 0.987269 32.4648 1.08779 32.5685C1.18831 32.6721 1.32496 32.7329 1.46924 32.7383H6.31025C6.60364 32.7383 6.83984 32.4754 6.83984 32.182V29.3516H20.2539V32.182C20.2539 32.4754 20.4829 32.7383 20.7764 32.7383H25.6174C25.7624 32.7332 25.9 32.6727 26.0017 32.5692C26.1034 32.4657 26.1615 32.3271 26.1641 32.182V25.6328H28.1646C30.2883 25.6328 32.0078 23.8797 32.0078 21.7562V13.6547C32.0077 13.1508 31.9081 12.6519 31.7147 12.1866C31.5213 11.7213 31.2379 11.2988 30.8808 10.9432C30.5238 10.5877 30.1 10.3062 29.6339 10.1149C29.1678 9.92349 28.6684 9.82605 28.1646 9.82812H7.74463C7.01373 9.82812 6.31277 9.53778 5.79594 9.02095C5.27912 8.50413 4.98877 7.80316 4.98877 7.07227C4.98877 6.34137 5.27912 5.6404 5.79594 5.12358C6.31277 4.60675 7.01373 4.31641 7.74463 4.31641H25.7474C25.8306 4.85053 26.1012 5.33761 26.5107 5.69045C26.9203 6.04329 27.442 6.23887 27.9826 6.24219H30.5724C30.8656 6.24219 31.0781 5.99555 31.0781 5.70217V5.37891H32.5391C32.68 5.37891 32.8151 5.32294 32.9147 5.22331C33.0143 5.12368 33.0703 4.98855 33.0703 4.84766C33.0703 4.70676 33.0143 4.57163 32.9147 4.47201C32.8151 4.37238 32.68 4.31641 32.5391 4.31641H31.0781V3.1875H32.5391ZM5.71187 15.0437C5.79609 14.8189 5.94689 14.625 6.14415 14.4881C6.34141 14.3511 6.57574 14.2776 6.81587 14.2773H20.6125C20.8526 14.2776 21.087 14.3511 21.2842 14.4881C21.4815 14.625 21.6323 14.8189 21.7165 15.0437L23.4016 19.5898H4.02668L5.71187 15.0437ZM5.77734 31.6758H1.99219V29.3516H5.77734V31.6758ZM21.3164 31.6758V29.3516H25.1016V31.6758H21.3164ZM25.1016 28.2891H1.99219V22.8892C1.99272 22.5941 2.05753 22.3026 2.1821 22.0351C2.30668 21.7675 2.48803 21.5303 2.71356 21.34C2.71973 21.3347 2.72777 21.336 2.73348 21.3306L3.47212 20.6523H23.908L24.4263 21.1997C24.4338 21.2077 24.4493 21.2121 24.4572 21.2196C24.6588 21.4088 24.8199 21.6369 24.9306 21.8903C25.0413 22.1436 25.0994 22.4169 25.1013 22.6933V28.2891H25.1016ZM26.7617 3.97561V3.54457C26.7668 3.22247 26.8971 2.91499 27.1249 2.68722C27.3527 2.45945 27.6602 2.32927 27.9823 2.32422H28.6875V5.17969H27.9823C27.6618 5.17832 27.3546 5.05153 27.1265 4.82648C26.8984 4.60143 26.7674 4.29601 26.7617 3.97561ZM30.0156 5.17969H29.75V2.32422H30.0156V5.17969Z" fill="#E85122"/>
</svg>
